<svg xmlns:dc="http://purl.org/dc/elements/1.1/" xmlns:cc="http://creativecommons.org/ns#" xmlns:rdf="http://www.w3.org/1999/02/22-rdf-syntax-ns#" xmlns:svg="http://www.w3.org/2000/svg" xmlns="http://www.w3.org/2000/svg" xmlns:sodipodi="http://sodipodi.sourceforge.net/DTD/sodipodi-0.dtd" xmlns:inkscape="http://www.inkscape.org/namespaces/inkscape" viewBox="0 0 12.7 15.875" version="1.1" x="0px" y="0px"><g transform="translate(0,-284.29999)"><path style="" d="m 5.85577,287.90937 a 0.05462292,0.05462292 0 0 0 -0.048,0.0403 L 4.80164,291.6621 H 6.9958 l 0.60929,-0.77773 h 1.96627 v -1.92805 l 0.41807,-0.97048 a 0.05462292,0.05462292 0 0 0 -0.0501,-0.0765 H 5.86105 a 0.05462292,0.05462292 0 0 0 -0.005,0 z m 0.67646,0.97307 h 0.72708 v 1.01957 H 6.53223 Z m 1.50429,0 h 0.7271 v 1.01957 h -0.7271 z" fill="#000000" stroke="none"/><path style="" d="m 7.08755,291.85016 h -6.5034 a 0.05462292,0.05462292 0 0 0 -0.055,0.0546 v 0.86976 a 1.7047269,1.7047269 0 0 0 1.7046,1.70473 h 6.4621 a 3.4752922,3.4752922 0 0 0 3.475,-3.40676 h -4.4747 z" fill="#000000" stroke="none"/><path style="" d="m 1.52845,288.71987 a 0.05462292,0.05462292 0 0 1 0.055,-0.0546 h 0.6371 l 0.7616,2.99671 h -1.4533 z" fill="#000000" stroke="none"/><path style="" d="m 8.26145,286.82074 a 0.05462292,0.05462292 0 0 1 0.055,0.0546 v 0.84594 h -1.4498 v -0.84594 a 0.05462292,0.05462292 0 0 1 0.055,-0.0546 z" fill="#000000" stroke="none"/></g><text x="0" y="27.7" fill="#000000" font-size="5px" font-weight="bold" font-family="'Helvetica Neue', Helvetica, Arial-Unicode, Arial, Sans-serif">Created by Phạm Thanh Lộc</text><text x="0" y="32.7" fill="#000000" font-size="5px" font-weight="bold" font-family="'Helvetica Neue', Helvetica, Arial-Unicode, Arial, Sans-serif">from the Noun Project</text></svg>