<svg xmlns:dc="http://purl.org/dc/elements/1.1/" xmlns:cc="http://creativecommons.org/ns#" xmlns:rdf="http://www.w3.org/1999/02/22-rdf-syntax-ns#" xmlns:svg="http://www.w3.org/2000/svg" xmlns="http://www.w3.org/2000/svg" xmlns:sodipodi="http://sodipodi.sourceforge.net/DTD/sodipodi-0.dtd" xmlns:inkscape="http://www.inkscape.org/namespaces/inkscape" viewBox="0 0 100 125" version="1.1" x="0px" y="0px"><g><circle r="0" cy="56.791348" cx="50.75671" style="opacity:1;fill:#000000;fill-opacity:1;stroke:none;stroke-width:4;stroke-linejoin:miter;stroke-miterlimit:4;stroke-dasharray:none;stroke-opacity:1"/><path style="opacity:1;fill:#000000;fill-opacity:1;stroke:none;stroke-width:4;stroke-linejoin:miter;stroke-miterlimit:4;stroke-dasharray:none;stroke-opacity:1" d="m 20.943365,18.131593 c -4.20832,-0.0488 -8.37623,2.16509 -10.69141,5.67969 -1.81857,2.76018 -2.4898,6.25252 -1.82422,9.49023 0.66549,3.23726 2.65866,6.18097 5.41797,8 2.26901,1.49203 5.02814,2.22315 7.73828,2.05078 2.71014,-0.17237 5.35627,-1.24815 7.41797,-3.01562 a 1.3933385,1.3933385 0 0 1 1.68164,-0.0996 l 3.45117,2.30859 a 1.3933385,1.3933385 0 0 1 0.52734,1.6543 c -1.32655,3.48315 -1.42949,7.41897 -0.2871,10.96679 1.14238,3.54783 3.52114,6.6836 6.63086,8.73829 3.08174,2.02505 6.85369,2.97612 10.52734,2.65625 3.67451,-0.31995 7.22651,-1.90927 9.91211,-4.4375 a 1.3933385,1.3933385 0 0 1 1.73047,-0.14454 l 3.3457,2.23829 a 1.3933385,1.3933385 0 0 1 0.5625,1.54492 c -0.73861,2.56326 -0.63566,5.36041 0.28711,7.86328 0.92277,2.50287 2.66098,4.69762 4.88672,6.16797 l 0,-0.002 c 2.76031,1.81911 6.25211,2.49177 9.49023,1.82617 3.23812,-0.6656 6.18102,-2.65953 8,-5.41992 1.81857,-2.76018 2.4898,-6.25253 1.82422,-9.49024 -0.66549,-3.23725 -2.65866,-6.18096 -5.41797,-8 l -0.002,0 c -2.27357,-1.49518 -5.04041,-2.22694 -7.75586,-2.05078 -2.71605,0.17621 -5.36426,1.25806 -7.42578,3.03516 a 1.3933385,1.3933385 0 0 1 -1.68555,0.10351 l -3.20508,-2.14453 a 1.3933385,1.3933385 0 0 1 -0.52539,-1.65625 c 1.3364,-3.48596 1.4451,-7.42947 0.30469,-10.98437 -1.14013,-3.55402 -3.52101,-6.6959 -6.63477,-8.75391 l -0.002,-0.002 c -3.08689,-2.02848 -6.86741,-2.98074 -10.54687,-2.65625 -3.68032,0.32456 -7.23547,1.92443 -9.91992,4.46289 a 1.3933385,1.3933385 0 0 1 -1.73243,0.14649 l -3.55664,-2.37891 a 1.3933385,1.3933385 0 0 1 -0.5625,-1.54688 c 0.74762,-2.5671 0.65197,-5.37286 -0.26953,-7.88281 -0.92149,-2.50994 -2.66345,-4.71203 -4.89453,-6.18554 l 0,0.002 c -2.00517,-1.32145 -4.39366,-2.05484 -6.79492,-2.08399 l -0.002,0 z"/></g></svg>