<svg width="441" height="424" xmlns="http://www.w3.org/2000/svg" xmlns:xlink="http://www.w3.org/1999/xlink" overflow="hidden"><defs><clipPath id="clip0"><rect x="588" y="77" width="441" height="424"/></clipPath><clipPath id="clip1"><rect x="589" y="78" width="439" height="422"/></clipPath><clipPath id="clip2"><rect x="589" y="78" width="439" height="422"/></clipPath><clipPath id="clip3"><rect x="589" y="78" width="439" height="548"/></clipPath></defs><g clip-path="url(#clip0)" transform="translate(-588 -77)"><g clip-path="url(#clip1)"><g clip-path="url(#clip2)"><g clip-path="url(#clip3)"><path d="M419.197 243.984 371.451 222.958C369.261 222.082 366.195 221.644 364.005 222.082L326.772 228.653C324.144 224.71 321.077 221.206 317.573 217.702L344.731 183.535C349.111 177.841 349.55 169.518 345.169 163.824L317.135 123.525C323.706 109.508 322.392 91.9867 311.879 78.4077 302.68 66.1428 288.663 60.0104 275.084 60.8864 271.58 60.8864 268.952 64.8287 270.266 68.333L280.778 98.5572C282.093 102.061 278.15 105.128 275.084 102.938L248.364 84.9782C245.298 82.788 240.918 84.1021 240.042 87.6064 236.099 100.309 238.289 115.64 247.488 127.905 258.439 141.922 275.96 148.055 291.291 144.551L311.003 173.023 290.415 198.867C282.531 194.924 274.208 191.42 265.009 188.792 265.447 187.478 265.447 186.602 265.447 185.288 265.447 176.089 258.001 168.642 248.802 168.642 240.48 168.642 233.471 174.775 232.595 183.097 228.215 182.659 223.396 182.659 219.016 182.659 214.636 182.659 209.817 183.097 205.437 183.097 204.561 175.213 197.552 168.642 189.23 168.642 180.031 168.642 172.585 176.089 172.585 185.288 172.585 186.602 172.585 187.916 173.023 188.792 163.824 191.42 155.501 194.924 147.617 198.867L127.029 173.023 146.741 144.551C162.072 148.055 179.593 141.922 190.544 127.905 199.743 115.64 201.933 100.747 197.99 87.6064 196.676 84.1021 192.734 82.788 189.668 84.9782L162.948 102.938C159.882 105.128 155.939 102.061 157.253 98.5572L167.766 68.333C169.08 64.8287 166.452 60.8864 162.948 60.8864 149.369 60.4484 135.352 66.5809 126.153 78.4077 115.64 91.9867 114.326 109.946 120.897 123.525L92.8628 163.824C88.4825 169.956 88.9205 177.841 93.3008 183.535L120.459 217.702C116.955 221.206 113.888 225.148 111.26 228.653L74.4654 222.082C71.8372 221.644 69.2091 222.082 67.0189 222.958L18.8354 243.984C11.8269 247.05 8.76064 254.935 11.8269 261.505 14.017 266.761 18.8354 269.39 24.0918 269.39 25.8439 269.39 27.596 268.952 29.3481 268.076L73.5894 248.802 100.747 253.621C100.747 257.125 100.747 259.753 100.747 262.819 100.747 263.695 100.747 264.571 100.747 265.447L71.8372 269.39C68.771 269.828 66.1428 271.142 64.3907 273.332L28.4721 309.251C23.2157 314.507 23.2157 322.83 28.4721 328.086 31.1003 330.714 34.6045 332.028 38.1088 332.028 41.613 332.028 45.1173 330.714 47.7455 328.086L80.5979 295.234 108.632 291.291C110.822 294.796 113.012 298.738 115.64 301.804L95.0529 314.069C92.8628 315.383 91.5487 317.135 90.2346 318.887L69.2091 357.434C65.7048 364.005 67.895 371.889 74.4654 375.831 76.6556 377.146 78.8457 377.584 81.0359 377.584 85.8543 377.584 90.2346 374.955 92.8628 370.575L112.136 335.532 136.666 320.639C158.13 335.094 187.478 343.855 219.454 343.855 251.43 343.855 281.216 335.094 302.242 320.639L326.772 335.532 346.045 370.575C348.673 374.955 353.054 377.584 357.872 377.584 360.062 377.584 362.252 377.146 364.443 375.831 371.013 372.327 373.203 364.005 369.699 357.434L348.235 319.763C346.921 317.573 345.607 315.821 343.417 314.945L322.83 302.242C325.458 298.738 327.648 295.234 329.838 291.729L357.872 295.672 390.724 328.524C393.353 331.152 396.857 332.466 400.361 332.466 403.865 332.466 407.37 331.152 409.998 328.524 415.254 323.268 415.254 314.945 409.998 309.689L374.079 273.77C371.889 271.58 369.261 270.266 366.633 269.828L337.285 265.447C337.285 264.571 337.285 263.695 337.285 262.819 337.285 259.753 336.847 256.687 336.409 254.059L363.567 249.24 407.808 268.514C409.56 269.39 411.312 269.828 413.064 269.828 418.321 269.828 423.139 266.761 425.329 261.943 428.833 254.935 425.767 247.05 419.197 243.984Z" transform="matrix(1.00221 0 0 1 589 78)"/><text font-family="Arial,Arial_MSFontService,sans-serif" font-weight="700" font-size="5" transform="matrix(4.39 0 0 4.38032 589 582)">Created by Adrien Coquet<tspan font-size="5" x="0" y="5.02246">from the Noun Project</tspan></text></g></g></g></g></svg>