<svg width="260" height="207" xmlns="http://www.w3.org/2000/svg" xmlns:xlink="http://www.w3.org/1999/xlink" overflow="hidden"><defs><clipPath id="clip0"><rect x="623" y="56" width="260" height="207"/></clipPath><clipPath id="clip1"><rect x="624" y="57" width="258" height="205"/></clipPath><clipPath id="clip2"><rect x="624" y="57" width="258" height="205"/></clipPath><clipPath id="clip3"><rect x="624" y="57" width="258" height="323"/></clipPath></defs><g clip-path="url(#clip0)" transform="translate(-623 -56)"><g clip-path="url(#clip1)"><g clip-path="url(#clip2)"><g clip-path="url(#clip3)"><path d="M241.521 176.185C241.448 175.879 233.603 145.792 233.603 128.884 233.603 111.984 241.448 81.8898 241.521 81.5837 241.843 80.3754 241.505 79.0866 240.74 78.0958 239.596 76.6055 237.348 76.1142 235.665 76.9519 202.783 93.4652 186.238 125.702 185.545 127.072 184.965 128.216 184.965 129.561 185.545 130.697 186.23 132.058 202.783 164.295 235.665 180.816 236.229 181.098 236.994 181.235 237.622 181.235 238.871 181.235 240.047 180.655 240.812 179.665 241.585 178.682 241.843 177.393 241.521 176.185Z" transform="matrix(1.0009 0 0 1 624 57)"/><path d="M113.176 80.5526C74.5353 80.5526 40.0669 98.1614 17.1819 125.743 15.7641 127.45 15.7641 130.318 17.1819 132.026 40.0669 159.607 74.5273 177.216 113.176 177.216 153.267 177.216 188.864 158.262 211.7 128.884 188.864 99.5067 153.267 80.5526 113.176 80.5526ZM52.3592 128.884C47.9127 128.884 44.3039 125.275 44.3039 120.829 44.3039 116.382 47.9127 112.774 52.3592 112.774 56.8057 112.774 60.4145 116.382 60.4145 120.829 60.4145 125.275 56.8057 128.884 52.3592 128.884ZM72.4974 151.044C76.7425 144.705 79.2235 137.084 79.2235 128.884 79.2235 120.684 76.7425 113.064 72.4974 106.724 81.8334 109.817 88.6079 118.509 88.6079 128.884 88.6079 139.259 81.8334 147.951 72.4974 151.044Z" transform="matrix(1.0009 0 0 1 624 57)"/><text font-family="Arial,Arial_MSFontService,sans-serif" font-weight="700" font-size="5" transform="matrix(8.0625 0 0 8.05526 624 436)">Created by trang5000<tspan font-size="5" x="0" y="4.9657">from the Noun Project</tspan></text></g></g></g></g></svg>