<svg xmlns="http://www.w3.org/2000/svg" xmlns:xlink="http://www.w3.org/1999/xlink" version="1.1" x="0px" y="0px" viewBox="0 0 100 125" enable-background="new 0 0 100 100" xml:space="preserve"><path fill="#000000" d="M58.676,0.438c-7.556,0-13.703,6.147-13.703,13.703c0,5.953,3.823,11.016,9.137,12.904v54.753  c0,4.714-3.836,8.551-8.55,8.551c-3.606,0-6.692-2.247-7.946-5.411h6.225c-1.436-4.066-5.278-14.965-6.537-18.71  c-5.582,2.954-9.393,8.811-9.393,15.566c0,0.003,0,0.004,0,0.004h-0.034c0,9.752,7.934,17.686,17.686,17.686  c9.748,0,17.679-7.929,17.684-17.675V27.045c5.316-1.888,9.137-6.951,9.137-12.904C72.38,6.585,66.231,0.438,58.676,0.438z   M58.676,18.708c-2.518,0-4.566-2.049-4.566-4.567c0-2.52,2.049-4.568,4.566-4.568c2.521,0,4.567,2.049,4.567,4.568  C63.243,16.659,61.196,18.708,58.676,18.708z"/></svg>