<svg width="325" height="330" xmlns="http://www.w3.org/2000/svg" xmlns:xlink="http://www.w3.org/1999/xlink" overflow="hidden"><defs><clipPath id="clip0"><rect x="591" y="16" width="325" height="330"/></clipPath><clipPath id="clip1"><rect x="592" y="16" width="323" height="329"/></clipPath><clipPath id="clip2"><rect x="592" y="16" width="323" height="329"/></clipPath><clipPath id="clip3"><rect x="592" y="16" width="323" height="404"/></clipPath></defs><g clip-path="url(#clip0)" transform="translate(-591 -16)"><g clip-path="url(#clip1)"><g clip-path="url(#clip2)"><g clip-path="url(#clip3)"><path d="M302.798 40.3731C302.798 17.0832 202.096 44.1671 174.95 60.6063L174.95 60.5596C174.917 56.6525 173.161 52.959 170.152 50.4663 173.161 47.9736 174.917 44.2802 174.95 40.3731 174.95 32.9406 168.925 26.9154 161.492 26.9154 154.06 26.9154 148.035 32.9406 148.035 40.3731 148.068 44.2805 149.824 47.9739 152.833 50.4663 149.824 52.9587 148.068 56.6521 148.035 60.5596L148.035 60.6063C120.888 44.1671 20.1865 17.0832 20.1865 40.3731 20.1865 80.7461 91.6805 76.8676 127.848 74.0173 91.6805 80.7461 22.9908 97.253 27.7565 113.268 37.6142 146.394 123.463 108.892 148.035 88.9492L148.035 148.035C148.088 152.76 150.651 157.1 154.763 159.429L154.763 289.34C154.763 293.057 157.776 296.069 161.492 296.069 165.209 296.069 168.221 293.057 168.221 289.34L168.221 159.43C172.334 157.101 174.897 152.761 174.95 148.035L174.95 88.9492C199.521 108.892 285.37 146.394 295.228 113.268 299.994 97.253 231.304 80.7461 195.136 74.0173 231.304 76.8676 302.798 80.7461 302.798 40.3731Z" fill="#FFFFFF" transform="matrix(1.00005 0 0 1 592 16)"/><text fill="#FFFFFF" font-family="Arial,Arial_MSFontService,sans-serif" font-weight="700" font-size="5" transform="matrix(3.36458 0 0 3.36442 592 389)">Created by Deemak Daksina<tspan font-size="5" x="0" y="5.05288">from the Noun Project</tspan></text></g></g></g></g></svg>