<svg width="293" height="283" xmlns="http://www.w3.org/2000/svg" xmlns:xlink="http://www.w3.org/1999/xlink" overflow="hidden"><defs><clipPath id="clip0"><rect x="639" y="156" width="293" height="283"/></clipPath><clipPath id="clip1"><rect x="640" y="157" width="292" height="281"/></clipPath><clipPath id="clip2"><rect x="640" y="157" width="292" height="281"/></clipPath><clipPath id="clip3"><rect x="640" y="157" width="292" height="367"/></clipPath></defs><g clip-path="url(#clip0)" transform="translate(-639 -156)"><g clip-path="url(#clip1)"><g clip-path="url(#clip2)"><g clip-path="url(#clip3)"><path d="M250.802 86.7941C250.802 83.6841 253.324 81.1623 256.434 81.1623 259.544 81.1623 262.065 83.6841 262.065 86.7941 262.065 89.9041 259.544 92.4258 256.434 92.4258 253.324 92.4258 250.802 89.9041 250.802 86.7941M52.0135 181.689 26.3009 136.775C23.121 143.671 20.4828 151.05 18.1474 158.487L42.5147 201.054C46.6672 195.539 49.6549 188.923 52.0135 181.689ZM37.4129 206.68 15.282 168.026 12.5331 177.828C8.7359 191.508 5.25901 204.059 0.483386 212.108 0.19219 212.609 0.0116479 213.191 0 213.814-0.0407675 215.753 1.49675 217.372 3.43612 217.419 19.0443 217.786 29.7661 213.668 37.4129 206.68ZM30.4009 128.738 54.8847 171.486C56.3291 165.598 57.5405 159.465 58.7577 153.303L59.7419 148.376 60.3068 152.424 60.4117 152.89 62.3394 160.298C64.535 168.446 67.2548 178.55 67.2548 184.071L67.2548 235.328C67.2548 237.354 68.8855 238.863 70.8831 238.863L93.7246 238.863C95.7513 238.863 97.2597 237.238 97.2597 235.24 97.2597 223.057 96.2696 206.377 97.3237 194.746 97.8479 189.208 101.115 184.019 106.054 180.181 111.15 176.221 117.999 173.728 125.488 173.728L128.703 173.868 169.412 177.735C169.966 177.787 176.25 179.197 176.005 179.686 178.09 180.787 179.965 182.33 181.625 184.246 183.442 186.354 184.444 188.014 185.551 190.542 186.319 192.568 186.698 194.787 186.698 197.315L186.698 235.333C186.698 237.36 188.329 238.869 190.326 238.869L213.168 238.869C215.194 238.869 216.697 237.244 216.697 235.246L216.697 196.354C216.697 192.126 217.361 188.235 218.695 184.636 220.04 181.02 222.084 177.636 224.827 174.45L228.345 170.432C233.813 164.247 239.317 158.021 243.196 150.525L254.221 129.274C254.849 128.057 255.723 127.061 256.766 126.356 257.802 125.651 259.037 125.203 260.411 125.063L279.991 123.019C282.28 122.78 284.522 121.551 286.147 119.944 287.714 118.465 289.048 116.554 289.939 114.563 291.103 111.953 291.202 110.556 291.202 107.778 291.016 106.013 290.37 104.388 289.182 103.066L279.415 92.2569C277.225 89.7585 275.851 86.7941 274.482 83.8297 272.548 79.619 270.586 75.3908 266.276 71.4538L261.879 67.447C261.011 66.6607 258.239 60.6912 256.498 56.9522L255.24 54.2965C254.384 52.5493 252.264 51.833 250.522 52.6891L249.474 53.4812C249.09 53.8714 245.729 57.4298 245.729 57.424 242.072 61.326 237.465 66.2531 235.293 67.7673L202.836 90.4107C196.942 94.5224 183.541 91.1504 167.572 87.1202 152.756 83.3929 135.855 79.1298 119.391 79.6248 114.691 79.7646 110.364 80.1781 106.386 80.8304 89.7119 83.5443 78.6522 90.4049 71.4422 99.0709 51.7456 101.377 39.2067 113.2 30.4009 128.738Z" fill-rule="evenodd" transform="matrix(1.00276 0 0 1 640 158.456)"/><text font-family="Arial,Arial_MSFontService,sans-serif" font-weight="700" font-size="5" transform="matrix(5.84 0 0 5.82393 640 537)">Created by Georgiana Ionescu<tspan font-size="5" x="0" y="4.97945">from the Noun Project</tspan></text></g></g></g></g></svg>