<svg width="294" height="305" xmlns="http://www.w3.org/2000/svg" xmlns:xlink="http://www.w3.org/1999/xlink" overflow="hidden"><defs><clipPath id="clip0"><rect x="589" y="56" width="294" height="305"/></clipPath><clipPath id="clip1"><rect x="590" y="57" width="292" height="303"/></clipPath><clipPath id="clip2"><rect x="590" y="57" width="292" height="303"/></clipPath><clipPath id="clip3"><rect x="590" y="57" width="292" height="366"/></clipPath></defs><g clip-path="url(#clip0)" transform="translate(-589 -56)"><g clip-path="url(#clip1)"><g clip-path="url(#clip2)"><g clip-path="url(#clip3)"><path d="M248.171 110.761C240.409 110.761 233.717 115.08 230.516 121.341L198.274 125.023C194.744 117.045 188.845 110.983 181.189 106.247L228.963 52.087C229.883 52.2125 230.817 52.3001 231.775 52.3001 242.637 52.3001 251.444 43.8584 251.444 33.4486 251.444 23.0388 242.643 14.6 231.781 14.6 220.918 14.6 212.112 23.0388 212.112 33.4486 212.112 35.4634 212.45 37.4023 213.061 39.2244L161.622 97.5368C156.062 95.7118 150.126 94.132 143.933 92.6808 141.319 92.0676 138.741 91.7084 136.2 91.5449L129.064 54.569C133.079 51.1175 135.619 46.1214 135.619 40.5471 135.619 30.1373 126.813 21.6985 115.95 21.6985 105.088 21.6985 96.2812 30.1373 96.2812 40.5471 96.2812 48.5859 101.543 55.4333 108.936 58.143L116.052 95.011C109.389 97.8784 103.485 102.352 98.7048 107.987L71.6948 91.5216C71.6948 91.5157 71.6948 91.507 71.6948 91.5011 71.6948 81.0913 62.888 72.6525 52.0256 72.6525 41.1632 72.6525 32.3565 81.0913 32.3565 91.5011 32.3565 101.911 41.1632 110.35 52.0256 110.35 55.0099 110.35 57.8306 109.693 60.3652 108.554L88.7476 125.855C86.9109 131.435 85.9006 137.444 85.9006 143.696 85.9006 146.423 86.1488 149.084 86.505 151.709L54.8464 164.805C51.7015 162.764 47.9114 161.572 43.8292 161.572 32.9668 161.572 24.1601 170.011 24.1601 180.421 24.1601 190.831 32.9668 199.27 43.8292 199.27 53.6083 199.27 61.6996 192.422 63.218 183.461L92.7129 171.264C96.4534 178.354 101.598 184.559 107.763 189.537L92.0588 233.045C83.2258 234.899 76.6091 242.43 76.6091 251.45 76.6091 261.86 85.4158 270.299 96.2782 270.299 107.141 270.299 115.947 261.86 115.947 251.45 115.947 246.901 114.265 242.731 111.465 239.472L125.91 199.451C131.587 201.325 137.634 202.371 143.93 202.371 144.966 202.371 145.98 202.268 147.002 202.213L165.76 247.292C163.31 250.434 161.841 254.32 161.841 258.546 161.841 268.955 170.648 277.394 181.51 277.394 192.373 277.394 201.179 268.955 201.179 258.546 201.179 249.231 194.122 241.513 184.859 239.989L167.161 197.45C174.718 194.104 181.402 189.163 186.871 183.069L208.894 194.72C209.536 204.575 218.057 212.383 228.502 212.383 239.364 212.383 248.171 203.942 248.171 193.532 248.171 183.122 239.364 174.683 228.502 174.683 225.088 174.683 221.876 175.518 219.079 176.984L197.716 165.684C200.262 159.324 201.714 152.415 201.892 145.182L233.019 141.626C236.628 145.801 242.074 148.459 248.171 148.459 259.033 148.459 267.84 140.02 267.84 129.61 267.84 119.2 259.033 110.761 248.171 110.761Z" fill="#FFFFFF" transform="matrix(1 0 0 1.00135 590 57)"/><text fill="#FFFFFF" font-family="Arial,Arial_MSFontService,sans-serif" font-weight="700" font-size="5" transform="matrix(2.92 0 0 2.92393 590 393)">Created by Dima Lagunov<tspan font-size="5" x="0" y="5.13007">from the Noun Project</tspan></text></g></g></g></g></svg>