<svg width="335" height="332" xmlns="http://www.w3.org/2000/svg" xmlns:xlink="http://www.w3.org/1999/xlink" overflow="hidden"><defs><clipPath id="clip0"><rect x="575" y="22" width="335" height="332"/></clipPath><clipPath id="clip1"><rect x="576" y="23" width="334" height="330"/></clipPath><clipPath id="clip2"><rect x="576" y="23" width="334" height="330"/></clipPath><clipPath id="clip3"><rect x="576" y="23" width="334" height="420"/></clipPath></defs><g clip-path="url(#clip0)" transform="translate(-575 -22)"><g clip-path="url(#clip1)"><g clip-path="url(#clip2)"><g clip-path="url(#clip3)"><path d="M148.734 31.3125C109.045 31.7243 70.8863 46.6815 41.4891 73.3495 32.3784 82.4174 24.5634 92.6996 18.2656 103.905L17.7698 104.793 17.0653 106.097 16.3608 107.376C5.58897 127.289-0.0350337 149.579-4.97699e-08 172.219-0.00984598 183.272 1.50034 194.273 4.48812 204.914 10.5175 229.865 23.322 252.666 41.4891 270.801 62.1973 291.827 90.52 303.598 120.031 303.444 144.483 303.416 168.333 295.864 188.345 281.812 218.613 249.822 218.796 197.999 188.345 167.522 163.515 142.684 123.252 142.678 98.4141 167.507 98.4092 167.512 98.4045 167.517 98.3995 167.522 78.956 186.982 78.956 218.515 98.3995 237.975 113.55 253.063 138.046 253.063 153.196 237.975 164.898 226.242 164.898 207.253 153.196 195.52 144.221 186.559 129.685 186.559 120.71 195.52 113.944 202.287 113.944 213.256 120.71 220.023 125.721 225.022 133.834 225.022 138.845 220.023 140.884 217.983 144.19 217.983 146.229 220.023 148.269 222.062 148.269 225.368 146.229 227.407 137.144 236.471 122.437 236.471 113.351 227.407 102.591 216.579 102.591 199.095 113.351 188.266 126.406 175.255 147.526 175.255 160.581 188.266 176.347 204.073 176.347 229.657 160.581 245.464 141.342 264.703 110.15 264.703 90.9106 245.464 67.3855 221.927 67.3855 183.779 90.9106 160.242 119.82 131.334 166.689 131.334 195.599 160.242 226.181 190.484 229.625 239.802 206.323 275.68 253.892 271.975 290.528 264.225 315.343 252.614 327.236 246.938 334.582 234.701 334 221.536 327.79 97.0948 263.73 31.3125 148.734 31.3125Z" fill="#FFFFFF" transform="matrix(1 0 0 1.00414 576 23)"/><text fill="#FFFFFF" font-family="Arial,Arial_MSFontService,sans-serif" font-weight="700" font-size="5" transform="matrix(2.60938 0 0 2.62018 576 398)">Created by Juraj Sedlák<tspan font-size="5" x="0" y="4.96149">from the Noun Project</tspan></text></g></g></g></g></svg>