<svg height='100px' width='100px'  fill="#FFFFFF" version="1.1" xmlns="http://www.w3.org/2000/svg" xmlns:xlink="http://www.w3.org/1999/xlink" x="0px" y="0px" viewBox="0.19 5.743 100 94.892" enable-background="new 0.19 5.743 100 94.892" xml:space="preserve"><path d="M92.388,42.197l7.803-1.684l-0.99-4.581l-7.035,1.52c-0.013-0.06-0.02-0.122-0.031-0.182
	c-0.259-1.177-0.741-2.51-1.557-3.844l6.267-3.456l-2.263-4.102l-7.213,3.976c-0.646-0.511-1.361-0.999-2.171-1.449l2.462-7.308
	l-4.44-1.494l-2.373,7.05c-1.22-0.33-2.441-0.513-3.775-0.541l-0.016-0.069c0.039,0,0.072-0.005,0.112-0.005h-0.113l-1.457-6.268
	l-4.564,1.062l1.421,6.11c-1.334,0.536-2.561,1.291-3.715,2.22l-3.241-4.806l-3.884,2.62l3.734,5.534
	c-0.869,1.007-1.717,2.094-2.569,3.232l-4.061-4.15L55.37,34.86l4.604,4.708c-0.923,1.271-1.892,2.586-2.933,3.939l-4.825-4.168
	l-3.063,3.546l4.935,4.263c-1.185,1.382-2.462,2.782-3.866,4.184l-4.314-4.544l-3.396,3.226l4.254,4.482
	c-1.412,1.183-2.815,2.238-4.195,3.196l-3.513-5.835l-4.014,2.417l3.599,5.976c-0.823,0.51-1.635,1.002-2.422,1.478
	c-0.441,0.266-0.882,0.533-1.323,0.802L30.202,56l-3.802,2.736l4.569,6.353c-1.226,0.881-2.373,1.821-3.382,2.857l-5.935-4.427
	l-2.8,3.757l6.002,4.478c-0.352,0.72-0.637,1.488-0.849,2.304h-8.197v4.686h7.825c0.065,0.851,0.196,1.743,0.4,2.686l-8.615,1.881
	l1,4.577l9.038-1.974c0.212,0.475,0.449,0.925,0.7,1.361l-5.924,6.069l3.354,3.271l5.585-5.722c0.786,0.656,1.65,1.211,2.583,1.671
	l-2.047,6.309l4.457,1.446l2.077-6.402c0.783,0.107,1.594,0.163,2.432,0.163c0.568,0,1.147-0.041,1.729-0.087l0.592,6.642
	l4.667-0.416l-0.625-7.022c0.99-0.258,1.985-0.569,2.988-0.925l2.881,6.38l4.27-1.929l-2.825-6.258
	c1.335-0.637,2.661-1.352,3.979-2.119l3.434,5.604l3.995-2.448l-3.471-5.663c1.07-0.729,2.128-1.478,3.159-2.263l4.653,4.903
	l3.398-3.226l-4.407-4.64c0.995-0.855,1.952-1.726,2.876-2.606l4.928,5.191l3.397-3.227l-5.029-5.297
	c0.751-0.811,1.541-1.681,2.357-2.604l5.619,4.397l2.888-3.689l-5.466-4.277c0.999-1.215,2.006-2.487,2.998-3.803l6.07,3.956
	l2.559-3.926l-5.899-3.847c0.825-1.217,1.619-2.455,2.366-3.709l6.371,2.778l1.874-4.294l-5.993-2.612
	c0.665-1.353,1.255-2.709,1.754-4.056l7.354,2.372l1.44-4.458l-7.49-2.417C92.211,43.711,92.319,42.949,92.388,42.197z
	 M38.669,89.395c-4.336,0-7.721-1.855-9.267-6.211c-5.371-15.129,9.311-13.934,23.742-28.129
	C65.561,42.837,68.877,30.77,77.171,30.767c1.345,0,2.819,0.317,4.486,1.003c13.607,5.596,2.363,24.49-12.082,39.984
	C60.313,81.687,47.51,89.395,38.669,89.395z"></path><path d="M50.637,23.393c-10.608-1.945-11.396-3.706-5.17-12.479c-8.774,6.226-10.536,5.438-12.481-5.17
	c-1.944,10.609-3.705,11.396-12.479,5.17c6.226,8.774,5.438,10.535-5.17,12.479c10.608,1.946,11.396,3.707,5.17,12.481
	c8.774-6.227,10.536-5.439,12.479,5.17c1.945-10.609,3.707-11.396,12.481-5.17C39.241,27.099,40.029,25.338,50.637,23.393z"></path><circle cx="40.338" cy="78.353" r="7.484"></circle><circle cx="50.219" cy="67.328" r="3.875"></circle><circle cx="59.653" cy="70.968" r="2.116"></circle><path d="M66.189,56.718c-2.11,1.148-2.891,3.793-1.738,5.903c1.146,2.113,3.79,2.893,5.899,1.742
	c2.116-1.149,2.895-3.792,1.746-5.905C70.946,56.347,68.301,55.566,66.189,56.718z"></path><circle cx="76.363" cy="36.388" r="2.611"></circle><path d="M2.151,54.527c-0.502,0-1.004-0.191-1.386-0.575c-0.766-0.766-0.766-2.007,0-2.772l13.253-13.253
	c0.765-0.766,2.008-0.766,2.772,0c0.766,0.766,0.766,2.007,0,2.773L3.538,53.952C3.155,54.336,2.653,54.527,2.151,54.527z"></path><path d="M24.03,52.213c-0.611,0-1.214-0.285-1.597-0.82l-3.886-5.439c-0.629-0.881-0.425-2.105,0.456-2.735
	c0.879-0.628,2.104-0.426,2.735,0.456l3.886,5.438c0.63,0.881,0.426,2.105-0.456,2.734C24.823,52.094,24.424,52.213,24.03,52.213z"></path></svg>