<?xml version="1.0" encoding="UTF-8" standalone="no"?>
<svg
   data-name="Layer 54"
   viewBox="0 0 100 125"
   x="0px"
   y="0px"
   version="1.1"
   id="svg22"
   sodipodi:docname="noun_plankton_3928938.svg"
   inkscape:version="1.1 (c4e8f9ed74, 2021-05-24)"
   xmlns:inkscape="http://www.inkscape.org/namespaces/inkscape"
   xmlns:sodipodi="http://sodipodi.sourceforge.net/DTD/sodipodi-0.dtd"
   xmlns="http://www.w3.org/2000/svg"
   xmlns:svg="http://www.w3.org/2000/svg">
  <defs
     id="defs26" />
  <sodipodi:namedview
     id="namedview24"
     pagecolor="#505050"
     bordercolor="#eeeeee"
     borderopacity="1"
     inkscape:pageshadow="0"
     inkscape:pageopacity="0"
     inkscape:pagecheckerboard="0"
     showgrid="false"
     inkscape:zoom="5.608"
     inkscape:cx="49.928673"
     inkscape:cy="120.7204"
     inkscape:window-width="828"
     inkscape:window-height="435"
     inkscape:window-x="0"
     inkscape:window-y="0"
     inkscape:window-maximized="1"
     inkscape:current-layer="svg22" />
  <path
     d="M66.25,19.86a8.44,8.44,0,1,0,1.07,6.37A8.41,8.41,0,0,0,66.25,19.86Zm-.88,5.93a6.44,6.44,0,1,1-6.29-7.89,6.53,6.53,0,0,1,1.46.16,6.45,6.45,0,0,1,4.83,7.73Z"
     id="path2" />
  <path
     d="M69,51.5a4.38,4.38,0,1,0,6,1.65A4.38,4.38,0,0,0,69,51.5Zm3.33,5.89A2.38,2.38,0,1,1,70,53.24a2.38,2.38,0,0,1,3.25.9A2.38,2.38,0,0,1,72.32,57.39Z"
     id="path4" />
  <path
     d="M74,32.1a6.27,6.27,0,1,0,3.91,2.79A6.24,6.24,0,0,0,74,32.1Zm2.75,7.07a4.27,4.27,0,1,1-4.16-5.23,4.65,4.65,0,0,1,1,.11A4.22,4.22,0,0,1,76.16,36h0A4.19,4.19,0,0,1,76.7,39.17Z"
     id="path6" />
  <path
     d="M95.11,56.61l-3.88-.41a15.47,15.47,0,0,0-.51-10l2.87-1.8a1,1,0,0,0,.32-1.37,1,1,0,0,0-1.38-.32l-2.69,1.68c-.12-.21-.22-.43-.35-.64l-4.95-7.91,2.66-1.66a1,1,0,0,0,.31-1.38,1,1,0,0,0-1.37-.31l-2.66,1.66-5.33-8.53L80.8,24a1,1,0,1,0-1.06-1.7L77.09,24,72,15.83c-.2-.33-.43-.64-.66-.95l2.7-1.69A1,1,0,1,0,73,11.49l-2.93,1.84a15.46,15.46,0,0,0-8.38-4.49L63,5.23a1,1,0,0,0-1.89-.68L59.64,8.6a15.34,15.34,0,0,0-8.06,1.83L49.23,6.67a1,1,0,0,0-1.7,1.07l2.35,3.75a15.29,15.29,0,0,0-5.17,6.45l-4.28-.46a1,1,0,0,0-1.1.89,1,1,0,0,0,.88,1.1l3.82.41a15.5,15.5,0,0,0,.36,9.49l-2.93,1.84a1,1,0,0,0-.32,1.37,1,1,0,0,0,.85.47,1,1,0,0,0,.53-.15l2.7-1.69c.18.34.36.69.57,1l5.07,8.12L48.21,42a1,1,0,0,0,.53,1.84,1,1,0,0,0,.53-.15L51.92,42l5.34,8.53L54.6,52.23a1,1,0,0,0-.32,1.38,1,1,0,0,0,1.38.32l2.66-1.66,4.94,7.91c.13.21.27.4.41.6L61,62.46a1,1,0,0,0,.53,1.84,1,1,0,0,0,.53-.15l2.87-1.79a15.42,15.42,0,0,0,8.74,4.83l-1.33,3.66a1,1,0,0,0,.61,1.28,1,1,0,0,0,.34.06,1,1,0,0,0,.94-.66l1.48-4.11.7,0a15.38,15.38,0,0,0,7.31-1.85l2.38,3.82a1,1,0,0,0,.85.47,1,1,0,0,0,.53-.16,1,1,0,0,0,.32-1.37l-2.4-3.83a15.35,15.35,0,0,0,5.16-6.38l4.34.46H95a1,1,0,0,0,.11-2ZM83.51,63.4A13.49,13.49,0,0,1,65,59.12l-5.48-8.76h0L53.09,40.13h0l-5.6-9A13.46,13.46,0,0,1,70.32,16.89l12,19.19h0l5.48,8.76A13.48,13.48,0,0,1,83.51,63.4Z"
     id="path8" />
  <path
     d="M31.58,49.19a6.77,6.77,0,0,0-8.4,4.65,6.81,6.81,0,0,0,6.53,8.67,6.79,6.79,0,0,0,1.87-13.32ZM34.31,57a4.79,4.79,0,0,1-8.8,1,4.8,4.8,0,0,1,1.87-6.51,4.85,4.85,0,0,1,2.31-.6,5.1,5.1,0,0,1,1.34.19A4.81,4.81,0,0,1,34.31,57Z"
     id="path10" />
  <path
     d="M22.2,71a3.64,3.64,0,0,0,3.25-5.26,3.57,3.57,0,0,0-2.1-1.82A3.63,3.63,0,1,0,22.2,71Zm-1.55-4.16a1.64,1.64,0,0,1,1.55-1.11,1.57,1.57,0,0,1,.52.08,1.63,1.63,0,0,1-1,3.1A1.63,1.63,0,0,1,20.65,66.83Z"
     id="path12" />
  <path
     d="M26.48,75.13a5.08,5.08,0,0,0-6.31,3.49,5.13,5.13,0,0,0,4.91,6.51A5.1,5.1,0,0,0,30,81.43a5.1,5.1,0,0,0-3.49-6.3Zm1.57,5.75a3.1,3.1,0,1,1-4.48-3.57,3.19,3.19,0,0,1,1.5-.39,2.9,2.9,0,0,1,.86.13,3.1,3.1,0,0,1,2.12,3.83Z"
     id="path14" />
  <path
     d="M44.43,56.86,42,56.17a12.3,12.3,0,0,0-1.67-6.91l2.53-1a1,1,0,0,0-.75-1.86l-2.95,1.2A12.17,12.17,0,0,0,34.11,44l.9-3.11a1,1,0,0,0-.69-1.24,1,1,0,0,0-1.23.69l-.9,3.11a12.14,12.14,0,0,0-6.19.35l-1.86-2.58a1,1,0,0,0-1.62,1.18l1.59,2.2-.26.13A12.11,12.11,0,0,0,19,49.56l-2.43-.69a1,1,0,0,0-1.23.68,1,1,0,0,0,.68,1.24l2.16.62c-.07.22-.15.43-.22.65L16,59l-2.13-.61a1,1,0,0,0-1.23.69,1,1,0,0,0,.68,1.23l2.13.62-2,7.09-2.13-.61a1,1,0,1,0-.55,1.92l2.13.61-1.95,6.77c0,.11-.05.22-.08.34l-2.14-.62a1,1,0,1,0-.55,1.92l2.35.68a12.23,12.23,0,0,0,1.67,7.3l-2.57,1A1,1,0,0,0,10,89.29a1,1,0,0,0,.38-.07l3-1.21a12.18,12.18,0,0,0,5,3.54l-.92,3.17A1,1,0,0,0,18.13,96a.86.86,0,0,0,.28,0,1,1,0,0,0,1-.72l.91-3.17a12.45,12.45,0,0,0,2.43.25,12,12,0,0,0,3.7-.61l1.9,2.64a1,1,0,0,0,.81.41,1,1,0,0,0,.81-1.58L28.31,91c.1,0,.21-.09.31-.15a12.12,12.12,0,0,0,5-5.15l2.35.68a.9.9,0,0,0,.28,0,1,1,0,0,0,1-.73,1,1,0,0,0-.69-1.23l-2.14-.62c0-.11.08-.22.11-.33l1.94-6.76,2.13.61a1,1,0,0,0,.28,0,1,1,0,0,0,.28-2L37,74.8l2-7.1,2.13.61a.84.84,0,0,0,.27,0,1,1,0,0,0,.28-2l-2.13-.61,2-7c.06-.22.1-.44.15-.67l2.17.63a1.26,1.26,0,0,0,.27,0,1,1,0,0,0,.28-2Zm-4.79,1.42-2.28,7.91h0l-2.59,9h0l-2.22,7.73a10.26,10.26,0,0,1-19.72-5.67l7.09-24.65a10.26,10.26,0,0,1,19.72,5.67Z"
     id="path16" />
</svg>
