<?xml version="1.0" encoding="UTF-8" standalone="no"?>
<svg
   version="1.1"
   x="0px"
   y="0px"
   viewBox="0 0 50 62.5"
   enable-background="new 0 0 50 50"
   xml:space="preserve"
   id="svg10"
   sodipodi:docname="noun_Dragonfly_1975370.svg"
   inkscape:version="1.1 (c4e8f9ed74, 2021-05-24)"
   xmlns:inkscape="http://www.inkscape.org/namespaces/inkscape"
   xmlns:sodipodi="http://sodipodi.sourceforge.net/DTD/sodipodi-0.dtd"
   xmlns="http://www.w3.org/2000/svg"
   xmlns:svg="http://www.w3.org/2000/svg"><defs
     id="defs14" /><sodipodi:namedview
     id="namedview12"
     pagecolor="#505050"
     bordercolor="#eeeeee"
     borderopacity="1"
     inkscape:pageshadow="0"
     inkscape:pageopacity="0"
     inkscape:pagecheckerboard="0"
     showgrid="false"
     inkscape:zoom="11.216"
     inkscape:cx="24.964337"
     inkscape:cy="64.10485"
     inkscape:window-width="828"
     inkscape:window-height="435"
     inkscape:window-x="0"
     inkscape:window-y="0"
     inkscape:window-maximized="1"
     inkscape:current-layer="svg10" /><g
     id="g4"><path
       fill-rule="evenodd"
       clip-rule="evenodd"
       d="M6.177,20.118l13.726-3.468c0.014,0.42,0.061,0.829,0.139,1.224l-1.022,0.873   c-3.725,3.185-9.794,8.374-12.103,8.079c-1.097-0.14-2.082-0.828-2.666-1.758C3.024,23.119,3.891,20.693,6.177,20.118    M29.903,14.618c-0.062-0.267-0.139-0.525-0.227-0.775l1.82-0.879C36.01,10.764,43.513,7.11,45.67,7.959   c0.98,0.387,1.813,1.302,2.09,2.322c0.228,0.744,0.223,1.549-0.06,2.268c-0.513,1.299-1.779,2.069-3.149,2.069H29.903z    M25.001,10.067c-1.315,0-2.437-1.027-2.437-2.367c0-1.339,1.12-2.366,2.437-2.366c1.318,0,2.437,1.028,2.437,2.366   C27.438,9.039,26.317,10.067,25.001,10.067z M23.081,22.236c1.253,0.628,2.685,0.609,3.923-0.042v4.563h-3.923V22.236z    M23.081,40.181h3.923v6.341c0,2.303-3.923,2.305-3.923,0V40.181z M23.081,34.352h3.923v4.063h-3.923V34.352z M23.081,32.586   v-4.063h3.923v4.063H23.081z M18.507,12.964l1.819,0.879l-0.227,0.775H5.451c-1.371,0-2.635-0.77-3.149-2.069   c-0.692-1.758,0.281-3.9,2.03-4.589C6.489,7.11,13.992,10.764,18.507,12.964z M29.961,17.875c0.077-0.395,0.124-0.804,0.138-1.224   l13.726,3.468c2.241,0.564,3.176,2.966,1.926,4.951c-0.584,0.93-1.569,1.618-2.666,1.758c-2.309,0.295-8.378-4.894-12.103-8.079   L29.961,17.875z M22.714,13.082c1.286-1.655,3.288-1.655,4.574,0c0.648,0.834,1.05,2,1.05,3.299c0,1.299-0.402,2.465-1.05,3.299   c-1.234,1.54-3.117,1.805-4.574,0c-0.648-0.834-1.05-2-1.05-3.299C21.664,15.082,22.066,13.916,22.714,13.082z M18.737,7.205V3.421   c0-0.265-0.074-0.502-0.212-0.726l-1.302-2.254c-0.241-0.421-0.78-0.566-1.201-0.324c-0.421,0.241-0.566,0.78-0.325,1.201   l1.272,2.204v3.795c0,0.289,0.085,0.525,0.233,0.757l2.124,3.327c-1.22-0.595-2.441-1.187-3.672-1.76   C11.178,7.56,5.917,5.44,3.69,6.318C1.044,7.358-0.385,10.538,0.66,13.19c0.772,1.965,2.706,3.193,4.791,3.193h8.307L5.75,18.407   c-3.457,0.87-4.841,4.654-2.989,7.6c0.874,1.39,2.303,2.356,3.935,2.565c2.704,0.345,7.983-3.842,11.906-7.155   c-0.238,0.938-0.416,1.948-0.596,2.975c-0.463,2.637-0.948,5.406-2.534,6.902c-0.353,0.334-0.37,0.892-0.037,1.245   c0.333,0.354,0.892,0.371,1.245,0.038c2.016-1.903,2.553-4.966,3.063-7.882c0.3-1.706,0.59-3.359,1.15-4.558   c0.13,0.217,0.27,0.423,0.421,0.617v25.767c0,4.638,7.456,4.637,7.456,0V20.646l0.337-0.508c0.562,1.2,0.852,2.852,1.151,4.558   c0.511,2.917,1.048,5.979,3.063,7.882c0.354,0.333,0.912,0.317,1.245-0.038c0.334-0.354,0.317-0.912-0.037-1.245   c-1.586-1.497-2.071-4.265-2.534-6.902c-0.18-1.027-0.357-2.037-0.596-2.975c3.922,3.313,9.201,7.5,11.905,7.155   c1.632-0.21,3.061-1.176,3.935-2.565c1.892-3.009,0.401-6.746-2.989-7.6l-8.008-2.023h8.307c2.085,0,4.018-1.228,4.791-3.193   c0.432-1.097,0.442-2.312,0.101-3.427c-0.516-1.569-1.573-2.833-3.13-3.446C44.085,5.44,38.825,7.559,34.347,9.64   c-1.229,0.571-2.458,1.16-3.673,1.76l2.137-3.346c0.142-0.22,0.22-0.476,0.22-0.739V3.521l1.272-2.204   c0.241-0.421,0.096-0.959-0.325-1.201c-0.421-0.242-0.959-0.096-1.201,0.324l-1.302,2.254c-0.137,0.224-0.212,0.462-0.212,0.726   v3.784l-2.854,4.47c-0.248-0.276-0.519-0.522-0.808-0.734c1.004-0.78,1.6-1.956,1.6-3.241c0-2.309-1.914-4.131-4.203-4.131   c-2.286,0-4.202,1.819-4.202,4.131c0,1.293,0.598,2.461,1.6,3.241c-0.29,0.212-0.559,0.458-0.808,0.734L18.737,7.205z"
       id="path2" /></g></svg>
