<?xml version="1.0" encoding="UTF-8" standalone="no"?>
<svg
   viewBox="0 0 48 60"
   x="0px"
   y="0px"
   version="1.1"
   id="svg12"
   sodipodi:docname="noun_Crab_3735159.svg"
   inkscape:version="1.1 (c4e8f9ed74, 2021-05-24)"
   xmlns:inkscape="http://www.inkscape.org/namespaces/inkscape"
   xmlns:sodipodi="http://sodipodi.sourceforge.net/DTD/sodipodi-0.dtd"
   xmlns="http://www.w3.org/2000/svg"
   xmlns:svg="http://www.w3.org/2000/svg">
  <defs
     id="defs16" />
  <sodipodi:namedview
     id="namedview14"
     pagecolor="#505050"
     bordercolor="#eeeeee"
     borderopacity="1"
     inkscape:pageshadow="0"
     inkscape:pageopacity="0"
     inkscape:pagecheckerboard="0"
     showgrid="false"
     inkscape:zoom="11.683333"
     inkscape:cx="23.965763"
     inkscape:cy="57.346648"
     inkscape:window-width="828"
     inkscape:window-height="435"
     inkscape:window-x="0"
     inkscape:window-y="0"
     inkscape:window-maximized="1"
     inkscape:current-layer="svg12" />
  <title
     id="title2">Food vol.1</title>
  <g
     data-name="Layer 25"
     id="g6">
    <path
       d="M45.52246,20.44824a.99945.99945,0,0,0-.89941,1.09082c.292,3.05567-.22461,5.13379-1.53711,6.17676a4.96385,4.96385,0,0,1-3.712.75311,8.00031,8.00031,0,0,0,.62018-5.80652,4.57577,4.57577,0,0,0,3.42-2.95733c1.02246-2.9668-.89648-6.90918-2.51562-8.64063a4.45617,4.45617,0,0,0-.79981-.65954,5.00888,5.00888,0,0,0,.57617-3.99964,5.35215,5.35215,0,0,0-4.35546-3.80859C32,1.7334,26.10059,3.45215,25.85254,3.52539a1,1,0,0,0,.40137,1.95215,5.65572,5.65572,0,0,1,4.88672,1.72461A29.94406,29.94406,0,0,0,26.19727,6.458a1.01447,1.01447,0,0,0-1.00977.68066A.99957.99957,0,0,0,25.585,8.29c1.66016,1.09668,4.42578,3.38281,4.7793,4.84863.47949,1.98731,2.56152,2.53516,4.36914,2.53516a9.02149,9.02149,0,0,0,1.07013-.06952c1.509,1.33209,1.76086,2.23407,1.75995,2.66327a1.05616,1.05616,0,0,1-.03986.26135,10.21359,10.21359,0,0,0-1.83026-1.39221c-4.80365-2.86292-10.83887-2.454-11.69342-2.38117-.85535-.07281-6.89056-.48175-11.6933,2.38117a10.21223,10.21223,0,0,0-1.82916,1.391,1.04254,1.04254,0,0,1-.041-.26019c-.00091-.4292.25092-1.33118,1.76-2.66327a9.02149,9.02149,0,0,0,1.07013.06952c1.80762,0,3.88965-.54785,4.36914-2.53516.35254-1.46191,3.11914-3.75,4.78028-4.84863a1.00089,1.00089,0,0,0,.39648-1.15137A1.01447,1.01447,0,0,0,21.80273,6.458a29.94385,29.94385,0,0,0-4.94335.74414,5.66557,5.66557,0,0,1,4.88671-1.72461,1,1,0,0,0,.40137-1.95215c-.249-.07324-6.14355-1.79394-10.4668-.92871A5.35217,5.35217,0,0,0,7.3252,6.40527a5.00915,5.00915,0,0,0,.57605,3.99945,4.45241,4.45241,0,0,0-.79969.65973c-1.61914,1.73145-3.53808,5.67383-2.51562,8.64063a4.5759,4.5759,0,0,0,3.42,2.95733,7.99921,7.99921,0,0,0,.62012,5.80646,4.96346,4.96346,0,0,1-3.712-.753c-1.3125-1.043-1.8291-3.12109-1.53711-6.17676a.99945.99945,0,0,0-.89941-1.09082.97981.97981,0,0,0-1.09082.89942c-.36231,3.78027.40918,6.45214,2.293,7.94238a6.31267,6.31267,0,0,0,3.9707,1.24609,9.92946,9.92946,0,0,0,2.18341-.25268,9.37417,9.37417,0,0,0,.72089.74585c.72583.67273,1.54815,1.39087,2.40075,2.10528-2.61224-.03167-6.15533.307-8.17907,2.12616A4.88392,4.88392,0,0,0,3.15332,39.2832a.99971.99971,0,0,0,.99805.958c.01465,0,.02832,0,.043-.001a.99928.99928,0,0,0,.957-1.041A2.93014,2.93014,0,0,1,6.1123,36.75c2.154-1.93878,7.4115-1.71863,9.56055-1.43732.65082.49744,1.2796.95923,1.86389,1.36866-3.12872.44531-7.44226,1.50164-8.28967,3.97686-.50293,1.47168.22754,3.06836,2.17188,4.74512a.99981.99981,0,0,0,1.30664-1.51367c-.71192-.61426-1.86524-1.76758-1.58594-2.584.57312-1.67559,5.98437-2.73114,9.50079-2.92486.30371.02783.75446.03815,1.24042.03815.90247,0,1.88428-.03205,2.11914-.04072.2348.00867,1.2157.04072,2.11816.04072.48578,0,.93714-.01026,1.24176-.03815,3.51642.19385,8.92731,1.24927,9.50043,2.92486.2793.81641-.874,1.96973-1.58594,2.584a.99981.99981,0,1,0,1.30664,1.51367c1.94434-1.67676,2.67481-3.27344,2.17188-4.74512-.84741-2.47522-5.16077-3.53161-8.28949-3.97686.58435-.40949,1.21326-.8714,1.86426-1.369,2.14813-.28333,7.3977-.50757,9.559,1.43664a2.92873,2.92873,0,0,1,.96191,2.4502.99928.99928,0,0,0,.957,1.041c.01465.001.02832.001.043.001a.99971.99971,0,0,0,.998-.958,4.88392,4.88392,0,0,0-1.623-4.02246c-2.02392-1.81872-5.56756-2.15716-8.17987-2.12549.85291-.7146,1.67548-1.433,2.40155-2.10595a9.37417,9.37417,0,0,0,.72089-.74585,9.92946,9.92946,0,0,0,2.18341.25268A6.31267,6.31267,0,0,0,44.32031,29.29c1.88379-1.49024,2.65528-4.16211,2.293-7.94238A.977.977,0,0,0,45.52246,20.44824Zm-11.8291-8.64941a2.66249,2.66249,0,0,0,.32361,1.83c-.80023-.08252-1.55811-.33448-1.70935-.95893A8.67575,8.67575,0,0,0,29.61621,8.916a9.17528,9.17528,0,0,1,3.48731,1.21875A.99994.99994,0,0,0,34.666,9.00488a9.34662,9.34662,0,0,0-3.71094-4.47363,16.269,16.269,0,0,1,4.97168.02637,3.3354,3.3354,0,0,1,2.81836,2.375,2.93067,2.93067,0,0,1-.59888,2.71429,5.32593,5.32593,0,0,0-2.2478.09723A2.85332,2.85332,0,0,0,33.69336,11.79883ZM9.25488,6.93262a3.3354,3.3354,0,0,1,2.81836-2.375,16.27536,16.27536,0,0,1,4.97266-.02637A9.34376,9.34376,0,0,0,13.334,9.00488a.99994.99994,0,0,0,1.5625,1.12989A9.17528,9.17528,0,0,1,18.38379,8.916a8.68385,8.68385,0,0,0-2.69141,3.7539c-.14966.6189-.9068.87067-1.707.95435a2.66126,2.66126,0,0,0,.32129-1.82544,2.8533,2.8533,0,0,0-2.20508-2.05469A5.328,5.328,0,0,0,9.8537,9.64685,2.93065,2.93065,0,0,1,9.25488,6.93262ZM8.75433,20.77515a2.73981,2.73981,0,0,1-2.27777-1.72242c-.65136-1.8916.57617-5.00781,2.08594-6.62109a3.15274,3.15274,0,0,1,3.002-.76074c.42676.11914.74219.33691.78614.542.05468.25781-.20313.82324-1.10938,1.57031-1.90039,1.56446-2.84375,3.10157-2.80371,4.57032a3.04609,3.04609,0,0,0,.66479,1.83178C8.97748,20.37769,8.863,20.57507,8.75433,20.77515ZM20.85449,36.40234a52.736,52.736,0,0,1-8.94043-6.83984,6.51058,6.51058,0,0,1-2.15332-5.4668,7.042,7.042,0,0,1,3.56934-5.24023,14.80535,14.80535,0,0,1,4.46979-1.68317L21.58,36.42267C21.251,36.42181,20.98163,36.41632,20.85449,36.40234Zm3.53351-.01251c-.12408-.0036-.24451-.00726-.35284-.01092-.01233-.00122-.02369.00555-.03595.00494-.01166.00055-.02265-.006-.03437-.00494-.10833.00378-.22876.00756-.35278.01123L19.77563,16.85321a21.79937,21.79937,0,0,1,4.12281-.09833.99113.99113,0,0,0,.1029-.01092.99345.99345,0,0,0,.1012.01092,21.69344,21.69344,0,0,1,4.12231.09564ZM36.08594,29.5625a55.83472,55.83472,0,0,1-8.85547,6.82324c-.15772.01978-.45526.02869-.80945.03162l3.7796-19.24762a14.82094,14.82094,0,0,1,4.4693,1.68573,7.042,7.042,0,0,1,3.56934,5.24023A6.51058,6.51058,0,0,1,36.08594,29.5625Zm2.81177-9.3772a3.04609,3.04609,0,0,0,.66479-1.83178c.04-1.46875-.90332-3.00586-2.80371-4.57032-.90625-.74707-1.16406-1.3125-1.10938-1.57031.04395-.20508.35938-.42285.78614-.542a3.1557,3.1557,0,0,1,3.002.76074c1.50977,1.61328,2.7373,4.72949,2.08594,6.62109a2.7398,2.7398,0,0,1-2.27771,1.72242C39.13708,20.57507,39.02252,20.37769,38.89771,20.1853Z"
       id="path4" />
  </g>
</svg>
