<?xml version="1.0" encoding="UTF-8" standalone="no"?>
<svg
   version="1.1"
   x="0px"
   y="0px"
   viewBox="0 0 100 125"
   enable-background="new 0 0 100 100"
   xml:space="preserve"
   id="svg8"
   sodipodi:docname="noun_Plant_26892.svg"
   inkscape:version="1.1 (c4e8f9ed74, 2021-05-24)"
   xmlns:inkscape="http://www.inkscape.org/namespaces/inkscape"
   xmlns:sodipodi="http://sodipodi.sourceforge.net/DTD/sodipodi-0.dtd"
   xmlns="http://www.w3.org/2000/svg"
   xmlns:svg="http://www.w3.org/2000/svg"><defs
     id="defs12" /><sodipodi:namedview
     id="namedview10"
     pagecolor="#505050"
     bordercolor="#eeeeee"
     borderopacity="1"
     inkscape:pageshadow="0"
     inkscape:pageopacity="0"
     inkscape:pagecheckerboard="0"
     showgrid="false"
     inkscape:zoom="5.608"
     inkscape:cx="49.928673"
     inkscape:cy="119.6505"
     inkscape:window-width="828"
     inkscape:window-height="435"
     inkscape:window-x="0"
     inkscape:window-y="0"
     inkscape:window-maximized="1"
     inkscape:current-layer="svg8" /><path
     d="M92.192,9.415l-0.141-1.639l-1.591-0.415c-2.436-0.637-4.947-0.959-7.467-0.959c-6.904,0-13.617,2.454-18.904,6.911  c-7.002,5.907-10.825,14.776-10.379,23.905c-0.558,0.706-1.088,1.417-1.602,2.129c-0.027-8.264-2.624-16.431-7.626-23.242  C36.937,5.826,24.716-0.234,11.903,0.007l-1.645,0.029L9.737,1.597c-4.066,12.167-1.97,25.591,5.606,35.906  c6.592,8.979,16.756,14.724,27.76,15.879c0.182,1.969,0.006,4.021-0.59,6.276c-0.399,1.517-0.73,3.022-1.012,4.515  c-0.033,0.177-0.065,0.352-0.098,0.527c-0.05,0.273-0.1,0.547-0.146,0.82c-0.147,0.859-0.274,1.702-0.384,2.532  c-1.688-2.44-3.962-4.47-6.671-5.854c-2.554-1.304-5.409-1.993-8.257-1.993c-2.942,0-5.878,0.725-8.489,2.097l-1.456,0.766  l0.233,1.627c0.838,5.849,4.475,10.943,9.727,13.628c2.554,1.305,5.41,1.995,8.261,1.995h0.001c2.053,0,4.1-0.361,6.039-1.041  c0.221,10.988,2.697,18.716,2.83,19.119c0.084,0.256,0.209,0.485,0.363,0.688c0.002,0.002,0.004,0.009,0.006,0.01l0.001-0.001  c0.438,0.568,1.12,0.907,1.841,0.907c0.24,0,0.484-0.037,0.724-0.115c1.222-0.398,1.89-1.713,1.492-2.935  c-0.005-0.015-0.067-0.21-0.17-0.57c-0.001-0.003-0.003-0.007-0.003-0.011c-0.065-0.229-0.148-0.53-0.241-0.887  c-0.021-0.076-0.039-0.15-0.061-0.232c-0.019-0.075-0.039-0.156-0.06-0.235c-0.026-0.107-0.053-0.216-0.082-0.331  c-0.018-0.072-0.035-0.147-0.053-0.224c-0.035-0.146-0.071-0.298-0.107-0.455c-0.013-0.056-0.025-0.11-0.039-0.169  c-1.035-4.539-2.547-13.596-1.341-24.124c0.017-0.146,0.034-0.289,0.052-0.435c0.052-0.43,0.107-0.861,0.17-1.296  c0.018-0.128,0.037-0.255,0.055-0.383c0.071-0.478,0.146-0.958,0.229-1.44c0.008-0.048,0.016-0.094,0.024-0.142  c0.294-1.7,0.665-3.427,1.124-5.171c0.041-0.154,0.073-0.305,0.111-0.457c0.631-2.345,1.393-4.616,2.288-6.812l0.151-0.003  l0.521-1.561c0.006-0.018,0.01-0.035,0.016-0.053c1.791-4.027,4.044-7.793,6.75-11.299c2.006,0.424,4.054,0.65,6.107,0.65  c0,0,0,0,0.001,0c6.906,0,13.622-2.455,18.907-6.911C89.149,28.263,93.008,18.922,92.192,9.415z M19.098,34.748  c-6.352-8.649-8.336-19.775-5.435-30.074c10.684,0.319,20.74,5.571,27.066,14.188c6.065,8.258,8.137,18.772,5.788,28.67  c-1.935-5.265-5.825-10.29-10.636-16.504c-1.975-2.55-4.211-5.438-6.523-8.621c-0.755-1.041-2.212-1.271-3.252-0.516  c-1.041,0.756-1.271,2.211-0.516,3.252c2.354,3.241,4.613,6.16,6.607,8.736c4.557,5.885,7.974,10.307,9.707,14.658  C32.85,47.139,24.575,42.207,19.098,34.748z M34.225,75.661L34.225,75.661c-2.148,0-4.215-0.5-6.142-1.485  c-3.394-1.734-5.879-4.82-6.884-8.453c1.518-0.565,3.131-0.859,4.749-0.859c2.145,0,4.211,0.499,6.138,1.483  c3.393,1.734,5.88,4.821,6.886,8.456C37.454,75.367,35.84,75.661,34.225,75.661z M78.868,30.839  c-4.446,3.75-10.095,5.814-15.905,5.814c-0.863,0-1.726-0.05-2.584-0.14c4.047-4.33,8.874-8.202,14.481-11.598  c1.101-0.666,1.452-2.098,0.785-3.198c-0.666-1.1-2.098-1.451-3.198-0.786c-5.443,3.297-9.979,6.917-13.771,10.711  c0.969-5.703,3.909-10.968,8.417-14.77c4.446-3.749,10.094-5.814,15.9-5.814c1.56,0,3.115,0.146,4.645,0.438  C87.768,18.907,84.562,26.039,78.868,30.839z"
     id="path2" /></svg>
