<?xml version="1.0" encoding="UTF-8" standalone="no"?>
<svg
   version="1.1"
   x="0px"
   y="0px"
   viewBox="0 0 100 125"
   style="enable-background:new 0 0 100 100;"
   xml:space="preserve"
   id="svg16"
   sodipodi:docname="noun_Raccoon_2505432.svg"
   inkscape:version="1.1 (c4e8f9ed74, 2021-05-24)"
   xmlns:inkscape="http://www.inkscape.org/namespaces/inkscape"
   xmlns:sodipodi="http://sodipodi.sourceforge.net/DTD/sodipodi-0.dtd"
   xmlns="http://www.w3.org/2000/svg"
   xmlns:svg="http://www.w3.org/2000/svg"><defs
     id="defs20" /><sodipodi:namedview
     id="namedview18"
     pagecolor="#505050"
     bordercolor="#eeeeee"
     borderopacity="1"
     inkscape:pageshadow="0"
     inkscape:pageopacity="0"
     inkscape:pagecheckerboard="0"
     showgrid="false"
     inkscape:zoom="5.608"
     inkscape:cx="49.928673"
     inkscape:cy="100.3923"
     inkscape:window-width="828"
     inkscape:window-height="435"
     inkscape:window-x="0"
     inkscape:window-y="0"
     inkscape:window-maximized="1"
     inkscape:current-layer="svg16" /><g
     id="g10"><circle
       cx="50"
       cy="71.752"
       r="4.697"
       id="circle2" /><path
       d="M94.739,66.87c-0.959-3.292-1.951-6.696-3.362-9.631c-3.021-6.229-5.406-10.872-7.269-14.151   c1.66-2.66,2.936-5.52,3.795-8.511c0.174-0.598,4.186-14.657-1.224-17.861c-1.326-0.802-2.775-0.497-5.195,0.011   c-2.688,0.57-5.05,1.563-9.03,3.796c-1.735,0.976-3.383,1.976-5.02,3.021c-3.33-1.96-7.124-3.271-11.103-3.932   c-0.18-0.077-0.378-0.119-0.586-0.119c-0.03,0-0.058,0.007-0.088,0.009c-1.795-0.264-3.619-0.411-5.452-0.413   c-0.067-0.009-0.134-0.021-0.204-0.021c-0.111,0-0.218,0.014-0.322,0.036c-5.994,0.076-12.005,1.559-17.114,4.44   c-1.638-1.045-3.286-2.045-5.022-3.022c-3.979-2.231-6.341-3.225-9.05-3.8c-2.398-0.504-3.846-0.808-5.164-0.012   c-5.419,3.21-1.407,17.27-1.234,17.862c0.86,2.995,2.136,5.855,3.796,8.516c-1.862,3.279-4.247,7.923-7.271,14.155   c-1.409,2.931-2.401,6.335-3.36,9.627l-0.03,0.104c-0.529,1.821-0.122,3.776,1.09,5.231c1.221,1.465,3.081,2.227,4.989,2.029   c2.393-0.244,5.404-0.446,9.606-0.093l2.168,0.177c5.03,0.409,6.642,0.54,11.281,1.445c1.904,1.618,4.465,3.587,7.732,5.038   c0.985,0.434,1.949,0.814,2.867,1.131c1.623,0.561,3.329,0.841,5.035,0.841s3.412-0.28,5.035-0.841   c0.918-0.316,1.882-0.697,2.871-1.133c3.264-1.45,5.824-3.418,7.729-5.036c4.64-0.905,6.251-1.036,11.281-1.445l2.169-0.177   c4.2-0.354,7.213-0.151,9.605,0.093c1.91,0.198,3.769-0.564,4.989-2.029c1.212-1.455,1.619-3.41,1.09-5.232L94.739,66.87z    M34.499,55.978c0-1.657,1.343-3,3-3c1.657,0,3,1.343,3,3s-1.343,3-3,3C35.842,58.978,34.499,57.635,34.499,55.978z M62.501,58.978   c-1.657,0-3-1.343-3-3s1.343-3,3-3c1.657,0,3,1.343,3,3S64.158,58.978,62.501,58.978z M91.375,70.285   c-0.589,0.707-1.452,1.056-2.38,0.965c-1.134-0.116-2.41-0.219-3.862-0.268c-0.312-0.615-0.628-1.259-0.964-1.95   c-1.892-3.9-4.247-8.755-8.608-13.152c-4.975-5.015-8.793-7.172-12.178-8.756c-0.675-0.315-1.393-0.475-2.133-0.475   c-1.971,0-3.781,1.157-4.613,2.949l-3.255,7.021c-1.117,2.41-0.188,5.293,2.115,6.563c2.221,1.226,3.901,2.463,5.138,3.783   c1.982,2.117,3.083,4.277,3.819,6.002c-0.171,0.062-0.335,0.143-0.474,0.263c-1.886,1.623-4.228,3.467-7.287,4.825   c-0.91,0.401-1.797,0.751-2.637,1.041c-2.652,0.916-5.457,0.917-8.113,0c-0.84-0.29-1.727-0.64-2.633-1.039   c-3.063-1.36-5.405-3.204-7.291-4.827c-0.051-0.044-0.112-0.074-0.169-0.111c0.024-0.067,0.048-0.127,0.072-0.195   c0.612-1.724,1.308-3.678,3.443-5.958c1.235-1.32,2.916-2.558,5.136-3.783c2.304-1.271,3.233-4.153,2.116-6.564l-3.255-7.02   c-0.832-1.792-2.643-2.949-4.613-2.949c-0.74,0-1.458,0.159-2.133,0.475c-3.385,1.584-7.203,3.741-12.178,8.756   c-4.361,4.397-6.717,9.252-8.608,13.152c-0.335,0.69-0.652,1.334-0.963,1.949c-1.452,0.049-2.729,0.153-3.863,0.269   c-0.925,0.095-1.791-0.258-2.38-0.965c-0.581-0.697-0.769-1.599-0.514-2.473l0.029-0.104c0.926-3.175,1.882-6.459,3.182-9.161   c3.242-6.683,5.735-11.508,7.621-14.75c0.287-0.493,0.269-1.106-0.047-1.583c-1.738-2.623-3.057-5.473-3.919-8.476   c-1.884-6.482-1.94-13.369-0.108-14.455c0.32-0.189,1.565,0.071,3.023,0.376c2.022,0.431,4.01,1.137,8.183,3.478   c1.949,1.097,3.79,2.21,5.627,3.405c0.045,0.029,0.094,0.049,0.14,0.073c0.023,0.012,0.045,0.025,0.068,0.035   c0.069,0.031,0.139,0.054,0.21,0.074c0.021,0.006,0.041,0.013,0.063,0.018c0.071,0.016,0.142,0.026,0.214,0.031   c0.026,0.002,0.051,0.005,0.077,0.006c0.067,0.002,0.133-0.002,0.199-0.009c0.032-0.003,0.063-0.005,0.094-0.011   c0.064-0.011,0.126-0.028,0.188-0.047c0.031-0.009,0.062-0.017,0.092-0.029c0.068-0.026,0.134-0.059,0.198-0.095   c0.016-0.009,0.033-0.014,0.049-0.024c4.495-2.72,9.835-4.195,15.206-4.451v7.043c0,0.828,0.672,1.5,1.5,1.5s1.5-0.672,1.5-1.5   v-7.054c0.919,0.035,1.835,0.099,2.743,0.206v1.62c0,0.828,0.672,1.5,1.5,1.5s1.5-0.672,1.5-1.5v-1.122   c3.399,0.724,6.624,1.969,9.433,3.762c0.25,0.159,0.529,0.235,0.806,0.235c0.346,0,0.682-0.126,0.954-0.351   c1.791-1.161,3.587-2.249,5.486-3.317c4.175-2.342,6.162-3.048,8.198-3.48c1.445-0.304,2.692-0.562,3.02-0.368   c1.822,1.08,1.766,7.967-0.119,14.454c-0.861,2.998-2.18,5.848-3.918,8.471c-0.315,0.477-0.334,1.09-0.047,1.583   c1.886,3.242,4.379,8.067,7.619,14.746c1.302,2.706,2.258,5.99,3.184,9.165l0.029,0.103C92.144,68.687,91.956,69.588,91.375,70.285   z"
       id="path4" /><path
       d="M18.229,22.104c-0.391-0.13-0.818-0.097-1.181,0.097c-0.364,0.192-0.633,0.526-0.743,0.923   c-0.489,1.757-0.362,5.542,1.022,10.036c0.797,2.591,1.749,4.646,2.91,6.285c0.292,0.413,0.755,0.633,1.225,0.633   c0.3,0,0.603-0.09,0.866-0.276c0.676-0.479,0.836-1.415,0.356-2.091c-0.974-1.374-1.788-3.151-2.49-5.434   c-0.855-2.776-1.143-5.126-1.151-6.683c3.382,1.34,6,3.03,8.147,5.243c0.575,0.593,1.524,0.609,2.121,0.031   c0.594-0.576,0.608-1.526,0.031-2.121C26.49,25.808,22.958,23.696,18.229,22.104z"
       id="path6" /><path
       d="M83.321,23.124c-0.11-0.396-0.379-0.73-0.743-0.923c-0.363-0.192-0.789-0.226-1.181-0.097   c-4.729,1.592-8.262,3.703-11.114,6.644c-0.577,0.595-0.563,1.545,0.031,2.121c0.597,0.579,1.545,0.563,2.121-0.031   c2.147-2.213,4.766-3.903,8.147-5.243c-0.009,1.557-0.296,3.906-1.151,6.683c-0.702,2.282-1.517,4.06-2.49,5.434   c-0.479,0.676-0.319,1.612,0.356,2.091c0.264,0.187,0.566,0.276,0.866,0.276c0.47,0,0.933-0.22,1.225-0.633   c1.161-1.639,2.113-3.694,2.91-6.285C83.684,28.666,83.811,24.881,83.321,23.124z"
       id="path8" /></g></svg>
