<?xml version="1.0" encoding="UTF-8" standalone="no"?>
<svg
   version="1.0"
   x="0px"
   y="0px"
   viewBox="-909 491 100 125"
   enable-background="new -909 491 100 100"
   xml:space="preserve"
   id="svg12"
   sodipodi:docname="noun_Fish_227655.svg"
   inkscape:version="1.1 (c4e8f9ed74, 2021-05-24)"
   xmlns:inkscape="http://www.inkscape.org/namespaces/inkscape"
   xmlns:sodipodi="http://sodipodi.sourceforge.net/DTD/sodipodi-0.dtd"
   xmlns="http://www.w3.org/2000/svg"
   xmlns:svg="http://www.w3.org/2000/svg"><defs
     id="defs16" /><sodipodi:namedview
     id="namedview14"
     pagecolor="#505050"
     bordercolor="#eeeeee"
     borderopacity="1"
     inkscape:pageshadow="0"
     inkscape:pageopacity="0"
     inkscape:pagecheckerboard="0"
     showgrid="false"
     inkscape:zoom="5.608"
     inkscape:cx="49.928673"
     inkscape:cy="108.9515"
     inkscape:window-width="828"
     inkscape:window-height="435"
     inkscape:window-x="0"
     inkscape:window-y="0"
     inkscape:window-maximized="1"
     inkscape:current-layer="svg12" /><path
     d="M-814.7,544.3c0,0,0.1-0.1,0.1-0.1c0.3-0.4,0.5-0.9,0.7-1.4c0.2-0.6,0.3-1.1,0.3-1.7c0-1.6-0.7-3.1-1.8-4.2  c-16.2-15.2-30.6-17.5-37.7-17.5c-13.6,0-25.6,7.4-33.6,13.8l-12.4-7.2c-0.5-0.3-1.1-0.5-1.7-0.5c-1.9,0-3.5,1.6-3.5,3.5v22.6  c0,1.9,1.6,3.5,3.5,3.5c0.6,0,1.2-0.2,1.7-0.5l11.3-6.5c6.9,5.8,19.8,14.7,34.7,14.7c7.2,0,21.6-2.3,37.7-17.5  C-815.2,544.9-814.9,544.6-814.7,544.3C-814.7,544.3-814.7,544.3-814.7,544.3z M-818.9,544.3c-0.4,0.4-0.8,0.7-1.3,1.1  c-0.1,0.1-0.3,0.2-0.4,0.4c-0.3,0.3-0.6,0.5-1,0.8c-0.5,0.4-1,0.8-1.5,1.2c0,0,0,0-0.1,0c-2.7,2.1-5.9,4.3-9.6,6.3  c-3.2-3.9-5-8.7-5-13.7c0-4.6,1.5-9.1,4.2-12.7c4.7,2.4,8.8,5.3,11.9,7.8c0.2,0.2,0.4,0.3,0.6,0.5c0.3,0.2,0.5,0.4,0.8,0.6  c0.4,0.4,0.8,0.7,1.2,1.1c0,0,0.1,0.1,0.1,0.1c0.5,0.4,0.9,0.8,1.3,1.2c0.6,0.5,0.9,1.3,0.9,2c0,0.8-0.3,1.5-0.9,2  C-817.9,543.4-818.4,543.8-818.9,544.3C-818.8,544.3-818.9,544.3-818.9,544.3z M-886.7,545c-0.3-0.2-0.6-0.4-1-0.4  c-0.3,0-0.5,0.1-0.7,0.2l-12.2,7.1c-0.1,0-0.1,0.1-0.2,0.1c-0.2,0-0.5-0.1-0.5-0.5v-22.6c0-0.3,0.3-0.5,0.5-0.5c0.1,0,0.1,0,0.2,0.1  l13.3,7.7c0.5,0.3,1.2,0.3,1.7-0.1c7.5-6.3,19.2-13.8,32.4-13.8c6.1,0,11.9,1.6,17,3.9c-2.9,4.1-4.5,9-4.5,14.1  c0,5.5,1.8,10.8,5.2,15.1c-5.3,2.5-11.4,4.3-17.8,4.3C-867.7,559.7-880.4,550.5-886.7,545z"
     id="path2" /><path
     d="M-851.9,540.5c0-2.4,0.9-4.8,2.4-6.7c0.5-0.6,0.4-1.6-0.2-2.1c-0.6-0.5-1.6-0.4-2.1,0.2c-0.6,0.7-1.1,1.5-1.5,2.3l-6.6-3.8  c-1.5-0.9-3.3-0.9-4.8,0c-1.5,0.9-2.4,2.4-2.4,4.2v11.2c0,1.7,0.9,3.3,2.4,4.2c0.8,0.4,1.6,0.7,2.4,0.7s1.7-0.2,2.4-0.7l6.4-3.7  c0.6,1.2,1.3,2.4,2.3,3.4c0.3,0.3,0.7,0.5,1.1,0.5c0.4,0,0.7-0.1,1-0.4c0.6-0.6,0.6-1.5,0.1-2.1  C-850.9,545.7-851.9,543.2-851.9,540.5z M-861.5,547.4c-0.8,0.5-1.5,0.2-1.8,0c-0.3-0.2-0.9-0.6-0.9-1.6v-11.2  c0-0.9,0.6-1.4,0.9-1.6c0.3-0.2,1-0.5,1.8,0l7,4c0,0,0,0,0.1,0c-0.3,1.1-0.4,2.3-0.4,3.4c0,1,0.1,1.9,0.3,2.9L-861.5,547.4z"
     id="path4" /><circle
     cx="-826.9"
     cy="539.9"
     r="2.2"
     id="circle6" /></svg>
