<svg width="341" height="345" xmlns="http://www.w3.org/2000/svg" xmlns:xlink="http://www.w3.org/1999/xlink" overflow="hidden"><defs><clipPath id="clip0"><rect x="624" y="164" width="341" height="345"/></clipPath><clipPath id="clip1"><rect x="625" y="165" width="339" height="343"/></clipPath><clipPath id="clip2"><rect x="625" y="165" width="339" height="344"/></clipPath><clipPath id="clip3"><rect x="625" y="165" width="339" height="424"/></clipPath></defs><g clip-path="url(#clip0)" transform="translate(-624 -164)"><g clip-path="url(#clip1)"><g clip-path="url(#clip2)"><g clip-path="url(#clip3)"><path d="M179.903 190.485 211.65 190.485C275.94 190.485 328.058 138.368 328.058 74.0775 328.058 68.2329 323.32 63.495 317.475 63.495L275.145 63.495C237.187 63.5544 201.642 82.1168 179.903 113.233L179.903 84.66C180.671 44.6264 148.924 11.5077 108.894 10.5825L84.66 10.5825C78.8155 10.5825 74.0775 15.3204 74.0775 21.165 73.3091 61.1986 105.056 94.3173 145.086 95.2425L158.738 95.2425 158.738 208.475C136.998 177.359 101.453 158.797 63.495 158.738L21.165 158.738C15.3204 158.738 10.5825 163.475 10.5825 169.32 10.5825 233.61 62.6999 285.728 126.99 285.728L158.738 285.728 158.738 306.893 116.408 306.893C110.563 306.893 105.825 311.63 105.825 317.475 105.825 323.32 110.563 328.058 116.408 328.058L222.233 328.058C228.077 328.058 232.815 323.32 232.815 317.475 232.815 311.63 228.077 306.893 222.233 306.893L179.903 306.893Z" transform="matrix(1.00106 0 0 1 625 165)"/><text font-family="Arial,Arial_MSFontService,sans-serif" font-weight="700" font-size="5" transform="matrix(10.5938 0 0 10.5825 625 662)">Created by Fiki Ahmadi<tspan font-size="5" x="0" y="5.00827">from the Noun Project</tspan></text></g></g></g></g></svg>