<svg width="292" height="267" xmlns="http://www.w3.org/2000/svg" xmlns:xlink="http://www.w3.org/1999/xlink" overflow="hidden"><defs><clipPath id="clip0"><rect x="609" y="35" width="292" height="267"/></clipPath><clipPath id="clip1"><rect x="610" y="35" width="290" height="267"/></clipPath><clipPath id="clip2"><rect x="610" y="35" width="290" height="267"/></clipPath><clipPath id="clip3"><rect x="610" y="35" width="290" height="364"/></clipPath></defs><g clip-path="url(#clip0)" transform="translate(-609 -35)"><g clip-path="url(#clip1)"><g clip-path="url(#clip2)"><g clip-path="url(#clip3)"><path d="M263.223 183.087 218.95 160.612C220.4 158.775 221.705 156.793 222.865 154.667 226.152 148.818 225.378 141.568 220.883 136.687 218.418 134.028 215.905 131.37 213.44 128.76L207.93 134.27C206.963 135.237 205.707 135.672 204.498 135.672 203.242 135.672 202.033 135.237 201.067 134.27 199.182 132.385 199.182 129.34 201.067 127.455L206.818 121.655C204.74 119.48 202.71 117.305 200.583 115.13L194.687 121.027C193.72 121.993 192.512 122.477 191.255 122.477 189.998 122.477 188.79 121.993 187.823 121.027 185.938 119.142 185.938 116.097 187.823 114.212L193.865 108.218C191.738 106.043 189.66 103.868 187.533 101.742L181.443 107.783C180.477 108.75 179.268 109.233 178.012 109.233 176.803 109.233 175.547 108.75 174.628 107.783 172.695 105.898 172.695 102.853 174.628 100.968L180.67 94.8783C178.543 92.7517 176.368 90.6733 174.193 88.5467L168.2 94.5883C167.282 95.5067 166.025 95.99 164.768 95.99 163.56 95.99 162.303 95.5067 161.385 94.5883 159.5 92.655 159.5 89.61 161.385 87.725L167.282 81.78C165.107 79.7017 162.932 77.6233 160.757 75.545L154.957 81.345C154.038 82.2633 152.782 82.7467 151.573 82.7467 150.317 82.7467 149.06 82.2633 148.142 81.345 146.257 79.46 146.257 76.3667 148.142 74.4817L153.652 68.9717C151.042 66.5067 148.383 63.9933 145.725 61.5283 140.843 57.0333 133.593 56.26 127.745 59.5467 119.625 64.0417 113.197 70.47 108.653 78.59 105.367 84.4867 106.188 91.6883 110.683 96.6183 113.1 99.2767 115.613 101.887 118.078 104.545L124.362 98.31C126.247 96.425 129.292 96.425 131.177 98.31 133.062 100.195 133.062 103.24 131.177 105.125L124.7 111.602C126.778 113.777 128.857 116 130.935 118.175L137.557 111.505C139.442 109.62 142.535 109.62 144.42 111.505 146.305 113.39 146.305 116.483 144.42 118.368L137.702 125.087C139.828 127.213 141.907 129.388 144.033 131.515L150.8 124.748C152.685 122.863 155.778 122.863 157.663 124.748 159.548 126.633 159.548 129.727 157.663 131.612L150.897 138.378C153.023 140.505 155.198 142.583 157.325 144.71L164.043 137.992C165.928 136.107 168.973 136.107 170.858 137.992 172.792 139.877 172.792 142.922 170.858 144.807L164.237 151.477C166.412 153.555 168.635 155.633 170.81 157.712L177.287 151.235C179.172 149.35 182.217 149.35 184.102 151.235 185.987 153.12 185.987 156.165 184.102 158.05L177.867 164.285C180.525 166.798 183.135 169.312 185.793 171.728 188.693 174.387 192.415 175.74 196.185 175.74 198.795 175.74 201.405 175.063 203.822 173.758 205.803 172.647 207.688 171.438 209.428 170.085L229.39 216.485C230.212 218.322 232 219.385 233.837 219.385 234.513 219.385 235.142 219.288 235.77 218.998 238.235 217.935 239.347 215.132 238.283 212.667L225.62 183.28 253.653 211.313C254.572 212.28 255.828 212.715 257.037 212.715 258.293 212.715 259.502 212.28 260.468 211.313 262.353 209.428 262.353 206.383 260.468 204.498L236.157 180.187 258.825 191.69C261.193 192.898 264.093 191.98 265.302 189.612 266.51 187.195 265.592 184.295 263.223 183.087Z" transform="matrix(1 0 0 1.00174 610 35)"/><path d="M180.718 196.185 136.493 173.71C137.943 171.873 139.248 169.892 140.408 167.765 143.695 161.917 142.922 154.667 138.427 149.785 135.962 147.078 133.448 144.468 130.983 141.81L125.425 147.368C124.507 148.287 123.25 148.77 121.993 148.77 120.785 148.77 119.528 148.287 118.61 147.368 116.725 145.483 116.725 142.39 118.61 140.505L124.362 134.753C122.283 132.578 120.205 130.355 118.127 128.18L112.182 134.125C111.263 135.043 110.007 135.527 108.798 135.527 107.542 135.527 106.285 135.043 105.367 134.125 103.482 132.24 103.482 129.147 105.367 127.262L111.36 121.268C109.282 119.093 107.155 116.967 105.028 114.792L98.9383 120.882C98.02 121.848 96.7633 122.283 95.555 122.283 94.2983 122.283 93.09 121.848 92.1233 120.882 90.2383 118.997 90.2383 115.952 92.1233 114.067L98.2133 107.977C96.0383 105.85 93.9117 103.723 91.7367 101.645L85.7433 107.638C84.7767 108.605 83.5683 109.04 82.3117 109.04 81.055 109.04 79.8467 108.605 78.88 107.638 76.995 105.753 76.995 102.708 78.88 100.823L84.825 94.8783C82.65 92.8 80.4267 90.7217 78.2517 88.6433L72.5 94.395C71.5333 95.3617 70.325 95.845 69.0683 95.845 67.86 95.845 66.6033 95.3617 65.6367 94.395 63.7517 92.51 63.7517 89.465 65.6367 87.58L71.195 82.0217C68.5367 79.5567 65.9267 77.0433 63.2683 74.6267 58.3867 70.1317 51.1367 69.3583 45.2883 72.645 37.1683 77.14 30.74 83.5683 26.1967 91.6883 22.91 97.585 23.7317 104.787 28.2267 109.717 30.6433 112.375 33.1567 114.985 35.6217 117.595L41.8567 111.36C43.7417 109.475 46.7867 109.475 48.72 111.36 50.605 113.245 50.605 116.338 48.72 118.223L42.2433 124.652C44.3217 126.875 46.3517 129.05 48.4783 131.225L55.1 124.603C56.985 122.718 60.03 122.718 61.915 124.603 63.8 126.488 63.8 129.533 61.915 131.418L55.245 138.137C57.3233 140.312 59.45 142.487 61.5767 144.613L68.3433 137.847C70.2283 135.962 73.2733 135.962 75.1583 137.847 77.0433 139.732 77.0433 142.777 75.1583 144.662L68.3917 151.428C70.5183 153.555 72.6933 155.682 74.8683 157.76L81.5867 151.09C83.4717 149.205 86.5167 149.205 88.4017 151.09 90.2867 152.975 90.2867 156.02 88.4017 157.905L81.78 164.527C83.955 166.605 86.13 168.683 88.3533 170.762L94.7817 164.333C96.6667 162.4 99.76 162.4 101.645 164.333 103.53 166.218 103.53 169.263 101.645 171.148L95.41 177.383C98.02 179.848 100.678 182.362 103.337 184.827 106.237 187.485 109.958 188.838 113.728 188.838 116.338 188.838 118.948 188.162 121.365 186.857 123.347 185.745 125.232 184.537 126.972 183.183L146.933 229.535C147.707 231.372 149.495 232.483 151.38 232.483 152.008 232.483 152.637 232.338 153.265 232.097 155.73 231.033 156.89 228.182 155.827 225.717L143.26 196.523 171.148 224.412C172.115 225.33 173.323 225.813 174.58 225.813 175.788 225.813 177.045 225.33 178.012 224.412 179.897 222.527 179.897 219.433 178.012 217.548L153.748 193.285 176.368 204.788C178.737 205.997 181.637 205.03 182.845 202.662 184.053 200.293 183.087 197.393 180.718 196.185Z" transform="matrix(1 0 0 1.00174 610 35)"/><text font-family="Arial,Arial_MSFontService,sans-serif" font-weight="700" font-size="5" transform="matrix(4.83333 0 0 4.84176 610 398)">Created by Vectorstall<tspan font-size="5" x="0" y="4.95688">from the Noun Project</tspan></text></g></g></g></g></svg>