<?xml version="1.0" encoding="UTF-8"?>
<svg width="700pt" height="700pt" version="1.1" viewBox="0 0 700 700" xmlns="http://www.w3.org/2000/svg" xmlns:xlink="http://www.w3.org/1999/xlink">
 <defs>
  <symbol id="t" overflow="visible">
   <path d="m18.766-1.125c-0.96875 0.5-1.9805 0.875-3.0312 1.125-1.043 0.25781-2.1367 0.39062-3.2812 0.39062-3.3984 0-6.0898-0.94531-8.0781-2.8438-1.9922-1.9062-2.9844-4.4844-2.9844-7.7344 0-3.2578 0.99219-5.8359 2.9844-7.7344 1.9883-1.9062 4.6797-2.8594 8.0781-2.8594 1.1445 0 2.2383 0.13281 3.2812 0.39062 1.0508 0.25 2.0625 0.625 3.0312 1.125v4.2188c-0.98047-0.65625-1.9453-1.1406-2.8906-1.4531-0.94922-0.3125-1.9492-0.46875-3-0.46875-1.875 0-3.3516 0.60547-4.4219 1.8125-1.0742 1.1992-1.6094 2.8555-1.6094 4.9688 0 2.1055 0.53516 3.7617 1.6094 4.9688 1.0703 1.1992 2.5469 1.7969 4.4219 1.7969 1.0508 0 2.0508-0.14844 3-0.45312 0.94531-0.3125 1.9102-0.80078 2.8906-1.4688z"/>
  </symbol>
  <symbol id="b" overflow="visible">
   <path d="m13.734-11.141c-0.4375-0.19531-0.87109-0.34375-1.2969-0.4375-0.41797-0.10156-0.83984-0.15625-1.2656-0.15625-1.2617 0-2.2305 0.40625-2.9062 1.2188-0.67969 0.80469-1.0156 1.9531-1.0156 3.4531v7.0625h-4.8906v-15.312h4.8906v2.5156c0.625-1 1.3438-1.7266 2.1562-2.1875 0.82031-0.46875 1.8008-0.70312 2.9375-0.70312 0.16406 0 0.34375 0.011719 0.53125 0.03125 0.19531 0.011719 0.47656 0.039062 0.84375 0.078125z"/>
  </symbol>
  <symbol id="a" overflow="visible">
   <path d="m17.641-7.7031v1.4062h-11.453c0.125 1.1484 0.53906 2.0078 1.25 2.5781 0.70703 0.57422 1.7031 0.85938 2.9844 0.85938 1.0312 0 2.082-0.14844 3.1562-0.45312 1.082-0.3125 2.1914-0.77344 3.3281-1.3906v3.7656c-1.1562 0.4375-2.3125 0.76562-3.4688 0.98438-1.1562 0.22656-2.3125 0.34375-3.4688 0.34375-2.7734 0-4.9297-0.70312-6.4688-2.1094-1.5312-1.4062-2.2969-3.3789-2.2969-5.9219 0-2.5 0.75391-4.4609 2.2656-5.8906 1.5078-1.4375 3.582-2.1562 6.2188-2.1562 2.4062 0 4.332 0.73047 5.7812 2.1875 1.4453 1.4492 2.1719 3.3828 2.1719 5.7969zm-5.0312-1.625c0-0.92578-0.27344-1.6719-0.8125-2.2344-0.54297-0.57031-1.25-0.85938-2.125-0.85938-0.94922 0-1.7188 0.26562-2.3125 0.79688s-0.96484 1.2969-1.1094 2.2969z"/>
  </symbol>
  <symbol id="e" overflow="visible">
   <path d="m9.2188-6.8906c-1.0234 0-1.793 0.17188-2.3125 0.51562-0.51172 0.34375-0.76562 0.85547-0.76562 1.5312 0 0.625 0.20703 1.1172 0.625 1.4688 0.41406 0.34375 0.98828 0.51562 1.7188 0.51562 0.92578 0 1.7031-0.32812 2.3281-0.98438 0.63281-0.66406 0.95312-1.4922 0.95312-2.4844v-0.5625zm7.4688-1.8438v8.7344h-4.9219v-2.2656c-0.65625 0.92969-1.3984 1.6055-2.2188 2.0312-0.82422 0.41406-1.8242 0.625-3 0.625-1.5859 0-2.8711-0.45703-3.8594-1.375-0.99219-0.92578-1.4844-2.1289-1.4844-3.6094 0-1.7891 0.61328-3.1016 1.8438-3.9375 1.2383-0.84375 3.1797-1.2656 5.8281-1.2656h2.8906v-0.39062c0-0.76953-0.30859-1.332-0.92188-1.6875-0.61719-0.36328-1.5703-0.54688-2.8594-0.54688-1.0547 0-2.0312 0.10547-2.9375 0.3125-0.89844 0.21094-1.7305 0.52344-2.5 0.9375v-3.7344c1.0391-0.25 2.0859-0.44141 3.1406-0.57812 1.0625-0.13281 2.125-0.20312 3.1875-0.20312 2.7578 0 4.75 0.54688 5.9688 1.6406 1.2266 1.0859 1.8438 2.8555 1.8438 5.3125z"/>
  </symbol>
  <symbol id="d" overflow="visible">
   <path d="m7.7031-19.656v4.3438h5.0469v3.5h-5.0469v6.5c0 0.71094 0.14062 1.1875 0.42188 1.4375s0.83594 0.375 1.6719 0.375h2.5156v3.5h-4.1875c-1.9375 0-3.3125-0.39844-4.125-1.2031-0.80469-0.8125-1.2031-2.1797-1.2031-4.1094v-6.5h-2.4219v-3.5h2.4219v-4.3438z"/>
  </symbol>
  <symbol id="i" overflow="visible">
   <path d="m12.766-13.078v-8.2031h4.9219v21.281h-4.9219v-2.2188c-0.66797 0.90625-1.4062 1.5703-2.2188 1.9844s-1.7578 0.625-2.8281 0.625c-1.8867 0-3.4336-0.75-4.6406-2.25-1.2109-1.5-1.8125-3.4258-1.8125-5.7812 0-2.3633 0.60156-4.2969 1.8125-5.7969 1.207-1.5 2.7539-2.25 4.6406-2.25 1.0625 0 2 0.21484 2.8125 0.64062 0.82031 0.42969 1.5664 1.0859 2.2344 1.9688zm-3.2188 9.9219c1.0391 0 1.8359-0.37891 2.3906-1.1406 0.55078-0.76953 0.82812-1.8828 0.82812-3.3438 0-1.457-0.27734-2.5664-0.82812-3.3281-0.55469-0.76953-1.3516-1.1562-2.3906-1.1562-1.043 0-1.8398 0.38672-2.3906 1.1562-0.55469 0.76172-0.82812 1.8711-0.82812 3.3281 0 1.4609 0.27344 2.5742 0.82812 3.3438 0.55078 0.76172 1.3477 1.1406 2.3906 1.1406z"/>
  </symbol>
  <symbol id="h" overflow="visible">
   <path d="m10.5-3.1562c1.0508 0 1.8516-0.37891 2.4062-1.1406 0.55078-0.76953 0.82812-1.8828 0.82812-3.3438 0-1.457-0.27734-2.5664-0.82812-3.3281-0.55469-0.76953-1.3555-1.1562-2.4062-1.1562-1.0547 0-1.8594 0.38672-2.4219 1.1562-0.55469 0.77344-0.82812 1.8828-0.82812 3.3281 0 1.4492 0.27344 2.5586 0.82812 3.3281 0.5625 0.77344 1.3672 1.1562 2.4219 1.1562zm-3.25-9.9219c0.67578-0.88281 1.4219-1.5391 2.2344-1.9688 0.82031-0.42578 1.7656-0.64062 2.8281-0.64062 1.8945 0 3.4453 0.75 4.6562 2.25 1.207 1.5 1.8125 3.4336 1.8125 5.7969 0 2.3555-0.60547 4.2812-1.8125 5.7812-1.2109 1.5-2.7617 2.25-4.6562 2.25-1.0625 0-2.0078-0.21094-2.8281-0.625-0.8125-0.42578-1.5586-1.0859-2.2344-1.9844v2.2188h-4.8906v-21.281h4.8906z"/>
  </symbol>
  <symbol id="g" overflow="visible">
   <path d="m0.34375-15.312h4.8906l4.125 10.391 3.5-10.391h4.8906l-6.4375 16.766c-0.64844 1.6953-1.4023 2.8828-2.2656 3.5625-0.86719 0.6875-2 1.0312-3.4062 1.0312h-2.8438v-3.2188h1.5312c0.83203 0 1.4375-0.13672 1.8125-0.40625 0.38281-0.26172 0.67969-0.73047 0.89062-1.4062l0.14062-0.42188z"/>
  </symbol>
  <symbol id="k" overflow="visible">
   <path d="m2.5781-20.406h5.25v7.7656h7.7656v-7.7656h5.2656v20.406h-5.2656v-8.6562h-7.7656v8.6562h-5.25z"/>
  </symbol>
  <symbol id="c" overflow="visible">
   <path d="m17.75-9.3281v9.3281h-4.9219v-7.1406c0-1.3203-0.03125-2.2344-0.09375-2.7344s-0.16797-0.86719-0.3125-1.1094c-0.1875-0.3125-0.44922-0.55469-0.78125-0.73438-0.32422-0.17578-0.69531-0.26562-1.1094-0.26562-1.0234 0-1.8242 0.39844-2.4062 1.1875-0.58594 0.78125-0.875 1.8711-0.875 3.2656v7.5312h-4.8906v-15.312h4.8906v2.2344c0.73828-0.88281 1.5195-1.5391 2.3438-1.9688 0.83203-0.42578 1.75-0.64062 2.75-0.64062 1.7695 0 3.1133 0.54688 4.0312 1.6406 0.91406 1.0859 1.375 2.6562 1.375 4.7188z"/>
  </symbol>
  <symbol id="s" overflow="visible">
   <path d="m0.14062-20.406h5.2812l5.4219 15.062 5.4062-15.062h5.2812l-7.5625 20.406h-6.2656z"/>
  </symbol>
  <symbol id="j" overflow="visible">
   <path d="m2.1875-5.9688v-9.3438h4.9219v1.5312c0 0.83594-0.007813 1.875-0.015625 3.125-0.011719 1.25-0.015625 2.0859-0.015625 2.5 0 1.2422 0.03125 2.1328 0.09375 2.6719 0.070313 0.54297 0.17969 0.93359 0.32812 1.1719 0.20703 0.32422 0.47266 0.57422 0.79688 0.75 0.32031 0.16797 0.69141 0.25 1.1094 0.25 1.0195 0 1.8203-0.39062 2.4062-1.1719 0.58203-0.78125 0.875-1.8672 0.875-3.2656v-7.5625h4.8906v15.312h-4.8906v-2.2188c-0.74219 0.89844-1.5234 1.5586-2.3438 1.9844-0.82422 0.41406-1.7344 0.625-2.7344 0.625-1.7617 0-3.1055-0.53906-4.0312-1.625-0.92969-1.082-1.3906-2.6602-1.3906-4.7344z"/>
  </symbol>
  <symbol id="r" overflow="visible">
   <path d="m12.422-21.281v3.2188h-2.7031c-0.6875 0-1.1719 0.125-1.4531 0.375-0.27344 0.25-0.40625 0.6875-0.40625 1.3125v1.0625h4.1875v3.5h-4.1875v11.812h-4.8906v-11.812h-2.4375v-3.5h2.4375v-1.0625c0-1.6641 0.46094-2.8984 1.3906-3.7031 0.92578-0.80078 2.3672-1.2031 4.3281-1.2031z"/>
  </symbol>
  <symbol id="f" overflow="visible">
   <path d="m9.6406-12.188c-1.0859 0-1.9141 0.39062-2.4844 1.1719-0.57422 0.78125-0.85938 1.9062-0.85938 3.375s0.28516 2.5938 0.85938 3.375c0.57031 0.77344 1.3984 1.1562 2.4844 1.1562 1.0625 0 1.875-0.38281 2.4375-1.1562 0.57031-0.78125 0.85938-1.9062 0.85938-3.375s-0.28906-2.5938-0.85938-3.375c-0.5625-0.78125-1.375-1.1719-2.4375-1.1719zm0-3.5c2.6328 0 4.6914 0.71484 6.1719 2.1406 1.4766 1.418 2.2188 3.3867 2.2188 5.9062 0 2.5117-0.74219 4.4805-2.2188 5.9062-1.4805 1.418-3.5391 2.125-6.1719 2.125-2.6484 0-4.7148-0.70703-6.2031-2.125-1.4922-1.4258-2.2344-3.3945-2.2344-5.9062 0-2.5195 0.74219-4.4883 2.2344-5.9062 1.4883-1.4258 3.5547-2.1406 6.2031-2.1406z"/>
  </symbol>
  <symbol id="q" overflow="visible">
   <path d="m16.547-12.766c0.61328-0.94531 1.3477-1.6719 2.2031-2.1719 0.85156-0.5 1.7891-0.75 2.8125-0.75 1.7578 0 3.0977 0.54688 4.0156 1.6406 0.92578 1.0859 1.3906 2.6562 1.3906 4.7188v9.3281h-4.9219v-7.9844-0.35938c0.007813-0.13281 0.015625-0.32031 0.015625-0.5625 0-1.082-0.16406-1.8633-0.48438-2.3438-0.3125-0.48828-0.82422-0.73438-1.5312-0.73438-0.92969 0-1.6484 0.38672-2.1562 1.1562-0.51172 0.76172-0.77344 1.8672-0.78125 3.3125v7.5156h-4.9219v-7.9844c0-1.6953-0.14844-2.7852-0.4375-3.2656-0.29297-0.48828-0.8125-0.73438-1.5625-0.73438-0.9375 0-1.6641 0.38672-2.1719 1.1562-0.51172 0.76172-0.76562 1.8594-0.76562 3.2969v7.5312h-4.9219v-15.312h4.9219v2.2344c0.60156-0.86328 1.2891-1.5156 2.0625-1.9531 0.78125-0.4375 1.6406-0.65625 2.5781-0.65625 1.0625 0 2 0.25781 2.8125 0.76562 0.8125 0.51172 1.4258 1.2305 1.8438 2.1562z"/>
  </symbol>
  <symbol id="p" overflow="visible">
   <path d="m17.75-9.3281v9.3281h-4.9219v-7.1094c0-1.3438-0.03125-2.2656-0.09375-2.7656s-0.16797-0.86719-0.3125-1.1094c-0.1875-0.3125-0.44922-0.55469-0.78125-0.73438-0.32422-0.17578-0.69531-0.26562-1.1094-0.26562-1.0234 0-1.8242 0.39844-2.4062 1.1875-0.58594 0.78125-0.875 1.8711-0.875 3.2656v7.5312h-4.8906v-21.281h4.8906v8.2031c0.73828-0.88281 1.5195-1.5391 2.3438-1.9688 0.83203-0.42578 1.75-0.64062 2.75-0.64062 1.7695 0 3.1133 0.54688 4.0312 1.6406 0.91406 1.0859 1.375 2.6562 1.375 4.7188z"/>
  </symbol>
  <symbol id="o" overflow="visible">
   <path d="m2.5781-20.406h5.875l7.4219 14v-14h4.9844v20.406h-5.875l-7.4219-14v14h-4.9844z"/>
  </symbol>
  <symbol id="n" overflow="visible">
   <path d="m2.5781-20.406h8.7344c2.5938 0 4.582 0.57812 5.9688 1.7344 1.3945 1.1484 2.0938 2.7891 2.0938 4.9219 0 2.1367-0.69922 3.7812-2.0938 4.9375-1.3867 1.1562-3.375 1.7344-5.9688 1.7344h-3.4844v7.0781h-5.25zm5.25 3.8125v5.7031h2.9219c1.0195 0 1.8047-0.25 2.3594-0.75 0.5625-0.5 0.84375-1.2031 0.84375-2.1094 0-0.91406-0.28125-1.6172-0.84375-2.1094-0.55469-0.48828-1.3398-0.73438-2.3594-0.73438z"/>
  </symbol>
  <symbol id="m" overflow="visible">
   <path d="m2.3594-15.312h4.8906v15.031c0 2.0508-0.49609 3.6172-1.4844 4.7031-0.98047 1.082-2.4062 1.625-4.2812 1.625h-2.4219v-3.2188h0.85938c0.92578 0 1.5625-0.21094 1.9062-0.625 0.35156-0.41797 0.53125-1.2461 0.53125-2.4844zm0-5.9688h4.8906v4h-4.8906z"/>
  </symbol>
  <symbol id="l" overflow="visible">
   <path d="m14.719-14.828v3.9844c-0.65625-0.45703-1.3242-0.79688-2-1.0156-0.66797-0.21875-1.3594-0.32812-2.0781-0.32812-1.3672 0-2.4336 0.40234-3.2031 1.2031-0.76172 0.79297-1.1406 1.9062-1.1406 3.3438 0 1.4297 0.37891 2.543 1.1406 3.3438 0.76953 0.79297 1.8359 1.1875 3.2031 1.1875 0.75781 0 1.4844-0.10938 2.1719-0.32812 0.6875-0.22656 1.3203-0.56641 1.9062-1.0156v4c-0.76172 0.28125-1.5391 0.48828-2.3281 0.625-0.78125 0.14453-1.5742 0.21875-2.375 0.21875-2.7617 0-4.9219-0.70703-6.4844-2.125-1.5547-1.4141-2.3281-3.3828-2.3281-5.9062 0-2.5312 0.77344-4.5039 2.3281-5.9219 1.5625-1.4141 3.7227-2.125 6.4844-2.125 0.80078 0 1.5938 0.074219 2.375 0.21875 0.78125 0.13672 1.5547 0.35156 2.3281 0.64062z"/>
  </symbol>
 </defs>
 <g>
  <path d="m585.65 294.28-6.4961-0.72656v-0.003907c0.77344-8.9258 0.47266-17.91-0.89453-26.766l9.4609-3.5859c4.6406-1.6523 7.0586-6.7578 5.4062-11.395-1.6562-4.6406-6.7578-7.0586-11.398-5.4062l-6.7773 2.4062c0-0.67188 0-1.3438-0.44922-2.0156l0.003906 0.003907c-1.7617-8.0234-4.1211-15.906-7.0547-23.578l6.5508-2.0703c4.4258-1.7812 6.625-6.7695 4.9531-11.238s-6.6055-6.7891-11.113-5.2266l-7.5586 2.8008c-3.1367-5.8945-6.6133-11.598-10.418-17.082l3.7539-2.4648v0.003906c4.082-2.6445 5.2461-8.0977 2.6016-12.18-2.6445-4.0859-8.0977-5.25-12.18-2.6055l-4.3125 2.8008c-2.8945-4.4766-6.1914-8.6758-9.8555-12.547-4.4297-4.4414-9.1445-8.5938-14.109-12.43l3.8086-4.1992h-0.003906c2.5156-3.6055 2.0039-8.5078-1.1992-11.516-3.2031-3.0078-8.1289-3.207-11.566-0.46875l-4.8711 5.6016c-2.0156-1.457-4.0312-2.9102-5.9375-4.4805-6.1602-4.8164-12.266-9.3516-18.367-13.609l2.8008-4.1992c1.3438-1.9297 1.8633-4.3203 1.4336-6.6367-0.42969-2.3125-1.7695-4.3594-3.7148-5.6758-1.9492-1.3203-4.3477-1.8047-6.6562-1.3438-2.3047 0.46484-4.332 1.832-5.625 3.7969l-2.9102 4.2578c-7.3906-4.6484-14.785-9.0156-22.398-12.938l2.8555-5.2656-0.003906 0.003907c1.3438-2.0703 1.7617-4.6094 1.1523-7-0.60938-2.3945-2.1875-4.4219-4.3594-5.5977s-4.7344-1.3906-7.0703-0.59375c-2.3359 0.79688-4.2344 2.5352-5.2344 4.7891l-3.1914 5.8789-2.9688-1.3984c-8.9805-3.7695-18.379-6.457-28-8.0078l1.3438-2.8008c2.0742-4.4062 0.17969-9.6562-4.2266-11.73-4.4062-2.0703-9.6602-0.17969-11.73 4.2266l-3.3594 7.168c-3.5859-0.67188-7.0547-1.3984-10.527-2.2383h-0.003906c-1.3906-0.55078-2.7383-1.207-4.0312-1.9609-2.2812-1.1172-4.6602-2.0195-7.1094-2.6875-1.9805-0.5-4.0117-0.76562-6.0508-0.78516-0.80078 0.050782-1.6055 0.050782-2.4062 0-2.6055-1.4023-5.7422-1.4023-8.3438 0-5.0469 1.5039-10.191 2.6445-15.402 3.418-3.2461 0.55859-6.5508 1.1758-9.8555 1.9023-4.4258 0.95312-8.9023 2.1289-13.441 3.3594l-3.5273-6.4961v0.003906c-2.4766-3.9844-7.6289-5.3438-11.746-3.0977-4.1211 2.2422-5.7695 7.3125-3.7656 11.551l1.7344 3.1914c-6.1602 2.0156-12.543 4.3125-19.098 6.7773h0.003906c-0.17969-4.7031-4.0312-8.4297-8.7344-8.457-4.8867 0-8.8477 3.9609-8.8477 8.8477v6.6641c-6.4961 2.7422-13.105 5.6016-19.938 8.793l-3.0234 1.3984-2.4648 1.1211-1.7344-4.8711c-1.6406-4.6406-6.7305-7.0703-11.371-5.4336-4.6367 1.6406-7.0703 6.7305-5.4297 11.371l2.4062 6.6641c-7.625 3.8594-14.879 8.4141-21.672 13.605l-4.5352-3.9766c-1.6562-1.9023-4.0469-3-6.5664-3.0195-2.5234-0.019531-4.9297 1.0469-6.6133 2.9219-1.6836 1.8789-2.4805 4.3867-2.1875 6.8906 0.29297 2.5039 1.6484 4.7617 3.7188 6.1992l3.1914 2.8008c-6.1406 6.4688-11.758 13.418-16.797 20.777l-5.1523-3.6953c-1.9023-1.3594-4.2656-1.9102-6.5703-1.5234-2.3047 0.38281-4.3633 1.6641-5.7227 3.5664-2.832 3.957-1.9141 9.4609 2.043 12.293l6.0469 4.3672c-3.3594 6.0469-6.4961 12.32-9.2969 18.762l-5.6016-2.2969h0.003906c-2.1875-1.1406-4.7539-1.3164-7.0781-0.48437-2.3242 0.83594-4.1914 2.6016-5.1562 4.875-0.96484 2.2734-0.93359 4.8438 0.082031 7.0938s2.9219 3.9727 5.2656 4.7539l5.8789 2.4648c-2.5234 7.3438-4.6367 14.82-6.3281 22.398l-3.6953-0.61719v0.003906c-4.793-0.82031-9.3438 2.4023-10.164 7.1953-0.82031 4.793 2.4023 9.3438 7.1953 10.164l3.5273 0.61719v-0.003906c-1.3047 9.4258-1.8672 18.938-1.6797 28.449l-2.6328 0.67188c-4.2188 1.1953-6.9258 5.2969-6.3633 9.6484 0.55859 4.3477 4.2227 7.6289 8.6055 7.7109 0.69922-0.003907 1.3945-0.097657 2.0703-0.27734 1.793 8.5352 4.1094 16.949 6.9453 25.199l-3.2461 1.0078h-0.003906c-4.1055 1.3594-6.6289 5.4883-5.9609 9.7617 0.66406 4.2773 4.3242 7.4414 8.6523 7.4844 0.91016-0.011719 1.8164-0.16016 2.6875-0.44531l3.1367-1.0078v0.67188h-0.003906c1.0977 5.1484 2.8477 10.137 5.2109 14.84 2.0625 3.4688 4.4844 6.7188 7.2227 9.6875 1.2305 1.457 2.4062 2.8008 3.3594 4.0898l1.3984 1.9023h0.003907c0.20312 0.22656 0.39062 0.47266 0.55859 0.72656l-8.5664 4.7031c-2.0508 1.1172-3.5742 2.9961-4.2344 5.2344-0.66406 2.2383-0.41016 4.6445 0.70312 6.6953 2.3203 4.2695 7.6602 5.8477 11.93 3.5273l11.199-6.1055v0.003907c2.582 3.0586 5.332 5.9727 8.2344 8.7344l-8.2305 7.8398h-0.003907c-1.6836 1.6094-2.6602 3.8281-2.7148 6.1562-0.050782 2.332 0.82422 4.5898 2.4375 6.2773 1.6016 1.6914 3.8125 2.6797 6.1445 2.7422s4.5938-0.80469 6.2852-2.4062l10.246-9.8008c1.2891 0.78516 2.5742 1.5664 3.9219 2.2383 0.64453 0.31641 1.3203 0.5625 2.0156 0.73047 1.2305 1.3984 2.4648 2.8555 3.8086 4.2578 0.39063 0.50391 0.89453 0.89453 1.2891 1.3438l-7.5586 12.992-0.003906-0.003906c-1.0742 2.0938-1.2695 4.5273-0.54297 6.7656 0.72266 2.2383 2.3125 4.0977 4.4102 5.1641 1.3477 0.76562 2.8711 1.1719 4.4219 1.1758 3.1367 0.003906 6.0391-1.6602 7.6172-4.3672l6.1055-10.414-0.003906-0.003907c8.0156 5.1016 16.445 9.5234 25.203 13.215 4.0898 1.8477 8.3438 3.7539 12.488 5.6016h0.28125-0.003906c1.6328 1.6914 3.3555 3.3008 5.1523 4.8164-2.0625 3.5156-1.4375 7.9922 1.5117 10.809 1.625 1.6016 3.8242 2.4883 6.1055 2.4609 2.3867 0 4.6719-0.96875 6.3281-2.6875l1.457-1.457v0.003906c7.1055 2.6133 14.406 4.6523 21.84 6.1016l2.2383 0.50391-0.72656 0.89453v0.003907c-2.5664 3.8711-1.6953 9.0703 1.9883 11.898 3.6836 2.832 8.9297 2.3281 12.012-1.1484l6.2148-8.0625h4.5352c2.7109 1.7383 5.5156 3.3281 8.4023 4.7578 5.8945 3.2109 12.129 5.7461 18.59 7.5625v6.7188c0.36719 4.5977 4.207 8.1445 8.8203 8.1445 4.6133 0 8.4531-3.5469 8.8203-8.1445v-4.1445h2.9688c8.5-0.046875 16.938-1.4844 24.977-4.2539l2.5742 5.6016v-0.003906c1.4297 3.1719 4.5859 5.207 8.0664 5.207 1.2344-0.015625 2.4531-0.28125 3.582-0.78125 2.1328-0.95703 3.8008-2.7188 4.6328-4.9062 0.82812-2.1875 0.75391-4.6133-0.20703-6.7422l-3.5273-7.9531h-0.003906c2.0312-2.1367 3.9023-4.4219 5.6016-6.832l1.625-0.55859c2.6328-1.1445 5.3984-1.9531 8.2305-2.4102 4.8789-0.78516 9.6055-2.3359 14-4.5898 7.6523-4.25 14.793-9.3594 21.281-15.234 0.66797 0.085937 1.3477 0.085937 2.0156 0h0.61719l4.1992 11.199v0.003906c1.3398 3.3984 4.6328 5.6211 8.2891 5.5977 1.0508 0.007812 2.0938-0.18359 3.0781-0.55859 4.4648-1.7266 6.7461-6.6875 5.1523-11.199l-3.9219-10.473c2.9453-0.94922 5.7656-2.2461 8.4023-3.8633 6.7031-4.2578 13.055-9.0547 18.984-14.336l6.8867 7.4492v-0.003906c3.293 3.5742 8.8594 3.8008 12.434 0.50391 3.5703-3.293 3.7969-8.8594 0.50391-12.43l-8.1211-8.2891c3.5664-4.4375 6.8242-9.1133 9.7422-14 2.3398-0.60938 4.5156-1.7188 6.3867-3.2461 2.9102-2.6875 5.9922-5.6016 9.0156-7.9531l1.1211-0.95312 6.7773 6.6641h-0.003906c1.6641 1.6172 3.8945 2.5234 6.2148 2.5195 3.5703 0 6.7891-2.1602 8.1367-5.4648 1.3516-3.3047 0.57031-7.0977-1.9766-9.5977l-6.0469-5.9922c3.8086-4.0078 6.9102-8.625 9.1836-13.664l0.44922-0.89453c0.61719-1.1758 1.2891-2.4062 2.0156-3.6406l5.6016 2.1289v-0.003906c1 0.375 2.0625 0.56641 3.1328 0.5625 4.0625-0.19141 7.4648-3.1445 8.2227-7.1406 0.76172-3.9961-1.3203-7.9922-5.0273-9.6602l-2.7422-1.0625h-0.003907c1.0859-2.125 2.0391-4.3125 2.8555-6.5547 1.7812-5.2695 3.0938-10.684 3.9219-16.184l7.168 0.78516h0.95312-0.003907c4.8594 0.24609 8.9961-3.4883 9.2422-8.3438 0.24609-4.8555-3.4883-8.9922-8.3438-9.2422zm-169.34-187.21-1.7344 3.1914-0.003906 0.003906c-0.71484 1.3789-1.0586 2.9219-1.0078 4.4766-7.8945-5.6016-15.625-10.527-23.184-15.289v0.003906c8.293 1.3438 16.398 3.6719 24.137 6.9414zm20.496 66.531c-3.0234-3.6953-6.1055-7.3906-9.2969-11.199l7-5.6016c0.97656-0.78516 1.7617-1.7812 2.2969-2.9141l3.8086 3.0781c3.8086 3.2461 7.5039 6.7188 11.199 10.305v0.003907c-2.168-0.46094-4.4297-0.082032-6.3281 1.0625zm5.207 59.586v-0.003906c1.4453 3.1172 4.5742 5.1094 8.0078 5.0977 1.2578 0.015625 2.5-0.25391 3.6406-0.78516l2.8008-1.2891c0.83984 1.8477 1.6797 3.7539 2.5742 5.6016 3.0352 6.4375 5.6172 13.082 7.7305 19.879l-2.6328 0.50391c-4.918 0.43359-8.5547 4.7695-8.1211 9.6875 0.43359 4.918 4.7695 8.5547 9.6875 8.1211h1.9062l3.8633-0.72656c1.9062 9.2383 3.2188 18.59 3.918 28h-2.2383c-4.6016 0.36719-8.1445 4.2031-8.1445 8.8203 0 4.6133 3.543 8.4531 8.1445 8.8164h2.9102c-0.21484 10.137-1.168 20.246-2.8555 30.242l-5.207-1.5117c-4.332-0.57031-8.4297 2.1094-9.6484 6.3086-1.2148 4.1953 0.8125 8.6523 4.7773 10.492l6.3828 1.8477c-3.3828 13.316-8.9258 25.992-16.406 37.52-1.3438 2.0156-2.4648 4.0898-3.5273 6.0469h-0.003906c-1.25 2.4648-2.75 4.7891-4.4766 6.9453l-0.89453 0.95312h-0.003906c0.23438-4.4492-2.8906-8.3711-7.2812-9.1289l-8.5117-1.3438c1.0078-7.1133 1.625-14.055 2.0703-20.551v-2.9102l6.2148 0.95313h1.3438l0.003906-0.003907c4.4961-0.070312 8.2188-3.5234 8.6211-8.0039s-2.6406-8.543-7.0508-9.4141l-8.2891-1.2891c0-8.0625 0-16.016-0.78516-23.801l8.4023-1.0625c4.6406-0.71484 7.9141-4.9375 7.4531-9.6133-0.46094-4.6758-4.4961-8.1758-9.1914-7.9688l-8.3984 0.83984c-0.83984-7.7852-1.9023-15.344-3.0234-22.398l4.4805-0.67188-0.003906-0.003907c4.8125-0.71094 8.1328-5.1836 7.4219-9.9961-0.71094-4.8086-5.1875-8.1289-9.9961-7.418l-4.8711 0.72656-2.1289-11.199c-1.0078-4.9297-2.2969-9.7422-3.6406-14.449l7.2227-1.5664h0.003906c2.4609-0.30078 4.6836-1.6289 6.1172-3.6562 1.4297-2.0234 1.9375-4.5625 1.3984-6.9844-0.53906-2.4219-2.0781-4.5039-4.2344-5.7305s-4.7344-1.4844-7.0898-0.71094l-8.5117 1.8477c-1.0625-3.6406-2.0156-7.2812-2.8008-11.199-0.78516-3.9219-1.6797-7.6719-2.5742-11.703l8.2305-2.0703c2.6367-0.17578 5.0547-1.5195 6.5977-3.6641s2.0469-4.8633 1.375-7.418c-0.67578-2.5547-2.4531-4.6758-4.8516-5.7812-2.3984-1.1094-5.168-1.0859-7.5469 0.0625l-8.0078 2.0156c-2.2383-8.3984-4.7617-16.801-7.6719-25.871l4.4805-1.5117c4.6406-1.5469 7.1445-6.5625 5.6016-11.203-1.5469-4.6367-6.5625-7.1445-11.203-5.5977l-4.8164 1.625-3.4141-8.457 2.4648-0.78516c2.6484-0.87109 4.7266-2.9492 5.5977-5.5977 4.4805 4.7617 8.9023 9.5195 13.16 14.336 0.33203 0.66797 0.72656 1.3047 1.1758 1.9023 0.60156 0.73438 1.3203 1.3594 2.1289 1.8477 4.1992 4.8164 8.2891 9.6328 12.152 14.336-2.0469 2.6523-2.4141 6.2383-0.9375 9.2461 1.4727 3.0078 4.5312 4.918 7.8828 4.9219 1.2773-0.003907 2.5391-0.28906 3.6953-0.83984l10.586 13.664h-0.003907c2.3086 3.0859 4.3125 6.3867 5.9922 9.8555l-2.9102 1.3438c-2.1289 0.97656-3.7812 2.7578-4.5898 4.957-0.8125 2.1953-0.71094 4.625 0.27734 6.7461zm-151.42-42.789-5.207-1.2305h-0.003906c-4.7305-1.1445-9.4961 1.7656-10.641 6.4961-1.1445 4.7305 1.7656 9.4961 6.4961 10.641l4.5352 1.1211c-2.0156 7.6172-3.9219 15.289-5.6016 22.848l-4.7031-1.0078h0.003906c-2.3164-0.63281-4.7891-0.29297-6.8477 0.94531-2.0586 1.2344-3.5195 3.2578-4.0469 5.6016-0.52734 2.3398-0.074218 4.7969 1.25 6.7969 1.3281 2 3.418 3.3672 5.7812 3.7891l4.7031 0.95312c-1.625 8.0625-3.0781 16.016-4.3125 23.91l-7.2227-0.89453c-4.6523-0.25-8.7031 3.1445-9.2656 7.7695-0.55859 4.625 2.5586 8.8906 7.1367 9.7578l6.7773 0.78516c-1.2891 10.078-2.2969 20.047-2.9688 29.848h-3.418c-2.4609-0.19531-4.8906 0.64453-6.707 2.3203-1.8125 1.6758-2.8438 4.0312-2.8438 6.5s1.0312 4.8242 2.8438 6.5c1.8164 1.6758 4.2461 2.5156 6.707 2.3203h2.5195c0 5.6016-0.33594 11.535-0.33594 17.246v8.9062l-12.32 0.50391c-4.8555 0.10938-8.7031 4.1328-8.5938 8.9883s4.1328 8.7031 8.9883 8.5938h0.33594l11.816-0.44922v0.003907c0.21875 10.246 1.4219 20.445 3.582 30.465l-6.7773 0.67188c-4.8555 0.24609-8.5898 4.3828-8.3438 9.2383 0.25 4.8555 4.3867 8.5898 9.2422 8.3438h0.89453l10.473-1.0625c0.44922 1.1211 0.95312 2.2383 1.5117 3.3594-3.2812-1.2148-6.9688-0.37891-9.4062 2.1289l-5.6016 5.9922c-10.246-8.1758-18.09-21.449-23.465-39.48l6.4414-0.89453v-0.003906c4.7422-0.73438 8.0195-5.1367 7.3633-9.8906s-5.0078-8.1055-9.7695-7.5234l-8.3438 1.1211h-0.003907c-2.5156-9.3516-4.1641-18.91-4.9258-28.562v-1.7344h7.6172c4.5977-0.36719 8.1445-4.207 8.1445-8.8203 0-4.6133-3.5469-8.4531-8.1445-8.8203h-7.7305c0.50781-10.199 1.5352-20.367 3.082-30.465l2.8555 0.55859h1.6797v0.003907c4.2266-0.027344 7.8555-3.0234 8.6797-7.1719 0.44141-2.293-0.046875-4.6719-1.3594-6.6055-1.3164-1.9297-3.3438-3.2617-5.6406-3.6953l-3.0781-0.61719h-0.003907c2.0117-9.6992 4.5156-19.285 7.5078-28.727l5.0977 1.3984h-0.003906c0.76562 0.20312 1.5586 0.29688 2.3516 0.28125 3.9531 0.011719 7.418-2.6289 8.457-6.4414 1.2891-4.6992-1.4648-9.5586-6.1602-10.863l-3.9219-1.0625c2.8008-7.4492 5.6016-14.895 8.9023-22.398l2.6875 1.5117 0.003907-0.003906c1.3398 0.79297 2.8711 1.1992 4.4258 1.1758 3.9727-0.011719 7.4453-2.6875 8.4688-6.5312 1.0234-3.8398-0.66016-7.8906-4.1016-9.875l-4.0898-2.3516c7.4336-14.52 15.699-28.602 24.754-42.168-0.046875 4.293 3 8.0039 7.2227 8.7891h0.83984c-0.33594 1.0625-0.72656 2.0703-1.0625 3.1367-1.793 6.3281-3.5273 12.098-5.207 18.031zm8.625-37.969-0.003907 0.003906c-1.6836-0.28125-3.418-0.066406-4.9844 0.61328 5.1289-7.6133 10.742-14.887 16.801-21.781-2.1289 6.4961-4.5938 12.938-7.2227 19.602-0.28125 0.72656-0.55859 1.5117-0.89453 2.2969zm124.04-8.7344-7.3906 5.9375c-8.0625-8.9023-16.52-17.695-25.367-26.039h-0.003907c-4.1875-3.8594-8.582-7.4844-13.16-10.867l-3.3047-2.5195c15.512 9.4102 32.48 20.555 49.223 33.266zm-49.281-11.199 4.4805 3.8633 3.9766 3.9219-3.9766 1.2891c-1.5703-3.1367-3.0234-6.1641-4.4805-9.2422zm-239.57 163.52 6.5508-1.7344h0.003906c2.5312-0.30469 4.8086-1.6953 6.2383-3.8125 1.4258-2.1133 1.8672-4.7461 1.1992-7.2109-0.66406-2.4609-2.3672-4.5156-4.668-5.625-2.2969-1.1094-4.9648-1.1641-7.3086-0.15234l-3.2461 0.83984c0.082031-6.9688 0.60547-13.93 1.5664-20.832l5.3203 0.89453h1.5117c4.8555 0.33984 9.0703-3.3203 9.4102-8.1758 0.33984-4.8555-3.3203-9.0664-8.1758-9.4062l-5.0977-0.89453c1.457-6.1602 3.1914-12.266 5.207-18.312l6.4961 2.7422c1.0781 0.48047 2.2422 0.73047 3.418 0.72656 4.0469-0.17578 7.4531-3.082 8.2734-7.0469 0.82031-3.9688-1.1562-7.9844-4.8008-9.75l-7-2.9102c2.2969-5.2656 4.8164-10.359 7.5039-15.289l2.4062 1.7344c1.8906 1.5625 4.3398 2.2734 6.7734 1.957 2.4297-0.3125 4.625-1.6211 6.0547-3.6094 1.4297-1.9922 1.9727-4.4844 1.4922-6.8906-0.47656-2.4023-1.9336-4.5039-4.0156-5.793l-3.5273-2.5195c4.6133-6.8906 9.7812-13.387 15.457-19.434l4.5352 3.9766c1.5312 1.4062 3.5234 2.2031 5.5977 2.2383 2.7734 0.11328 5.4414-1.0664 7.2266-3.1914 1.543-1.7578 2.3203-4.0586 2.1602-6.3906-0.15625-2.332-1.2383-4.5078-3-6.0391l-2.9102-2.5742-0.003906-0.003906c4.5156-3.2188 9.25-6.1172 14.168-8.6797l2.2969 6.5508c1.2695 3.5195 4.6055 5.8672 8.3438 5.8828 1.0156-0.003906 2.0234-0.19141 2.9688-0.5625 4.5312-1.6562 6.8945-6.6406 5.3203-11.199l-3.0234-8.457 3.9219-1.793 3.0234-1.3984c4.9844-2.2969 9.8008-4.4805 14.617-6.5508h-0.003906c2.332 2.9258 6.2695 4.043 9.7891 2.7773 3.5234-1.2656 5.8477-4.6367 5.7773-8.3789v-0.89453c9.6328-3.8086 18.816-7.1133 27.664-9.9102v0.28125l-1.1211 0.78516c-8.793 6.4961-17.078 13.832-25.09 20.887l-5.6016 4.9844-1.5664-1.8477 0.003906-0.003906c-1.3516-2.1641-3.5742-3.6367-6.0938-4.043-2.5195-0.40625-5.0938 0.29688-7.0586 1.9258-1.9609 1.6289-3.1289 4.0273-3.1914 6.582-0.066406 2.5508 0.97266 5.0078 2.8477 6.7344l1.793 2.1289c-3.9766 3.5273-7.9531 7.168-11.93 10.863l-1.2891-0.61719h0.003907c-2.1133-1.0039-4.543-1.1211-6.7461-0.32031-2.1992 0.79688-3.9844 2.4492-4.9609 4.5781-1.293 2.7617-1.082 5.9961 0.5625 8.5664-6.1719 6.5-11.883 13.422-17.082 20.723-1.793 2.5742-3.4727 5.0977-5.207 7.6719l-1.457-0.95312c-4.0977-2.6133-9.5391-1.4102-12.152 2.6875s-1.4062 9.5391 2.6914 12.152l1.5664 1.0625c-6.25 10.5-11.859 21.363-16.801 32.539-4.0234-0.56641-7.9102 1.6992-9.4023 5.4805-1.4883 3.7812-0.19531 8.0898 3.1328 10.422-4.1758 11.637-7.3438 23.605-9.4648 35.785h-1.2344c-4.8086-0.74219-9.3086 2.5547-10.051 7.3633-0.74219 4.8086 2.5547 9.3086 7.3633 10.051l1.793 0.28125c-0.16797 3.1367-0.16797 5.9375-0.16797 9.1836-1.1719-0.058594-2.3438 0.070313-3.4727 0.39062l-9.2969 3.0234v0.003906c-2.832-7.918-5.1172-16.02-6.832-24.25zm12.375 42.785c0-0.55859-0.28125-1.1211-0.44922-1.7344l8.2305-2.6328c0.44922 4.5352 1.0625 9.0156 1.9023 13.441l0.007813-0.003906c-1.6367 1.6953-2.5234 3.9766-2.4648 6.3281-1.3242-1.457-2.4883-3.0547-3.4727-4.7578-1.6602-3.3906-2.9219-6.9609-3.75-10.641zm30.242 19.598 7.6172-2.9102c4.5469-1.7305 6.8281-6.8203 5.0938-11.367-1.7305-4.5469-6.8203-6.8281-11.367-5.0977l-5.6016 2.0156h0.003907c-1.5156-10.023-1.8906-20.188-1.1211-30.297l8.2891 1.2891h1.3438c4.7695 0.25781 8.8711-3.3438 9.2383-8.1055 0.36328-4.7656-3.1406-8.9492-7.8945-9.4219l-8.7344-1.3984h-0.003906c1.8828-10.469 4.5977-20.766 8.1211-30.801l5.9922 2.8555c1.1758 0.54297 2.457 0.82812 3.75 0.83984 4.1094-0.03125 7.6523-2.8867 8.5586-6.8906 0.91016-4.0078-1.0586-8.1094-4.75-9.9102l-7.168-3.3594c4.4883-10.383 9.5742-20.5 15.234-30.297l5.6016 3.6406h-0.003906c4.1016 2.6328 9.5586 1.457 12.211-2.6328 2.5898-4.1172 1.3906-9.5547-2.6914-12.207l-5.9922-3.8086c1.7344-2.6875 3.3594-5.0391 4.7617-7.0547 5.5898-7.8281 11.809-15.188 18.594-22.008l9.5195 4.4805c1.1758 0.53125 2.457 0.80078 3.75 0.78125 3.4258 0.019531 6.5391-1.9766 7.9531-5.0938 0.99219-2.1172 1.1016-4.5391 0.30078-6.7344-0.79688-2.1992-2.4375-3.9844-4.5586-4.9688l-3.3047-1.5117c1.9609-1.8477 3.9766-3.6406 5.9922-5.6016l0.28125 0.33594c1.6914 1.9883 4.168 3.1328 6.7773 3.1367 2.0547-0.003906 4.0391-0.73828 5.5977-2.0742 1.7969-1.5 2.9219-3.6602 3.1211-5.9922 0.19922-2.3359-0.53906-4.6523-2.0547-6.4375l-0.50391-0.61719 5.9922-5.2656c7.7266-6.832 15.68-13.887 23.855-19.938v0.003906c0.85938-0.61719 1.7578-1.1797 2.6875-1.6797-1.2305 1.625-2.4648 3.1914-3.7539 4.7031h0.003906c-7.5195 8.457-14.426 17.441-20.664 26.879-10.527 15.418-20.102 31.465-28.676 48.051l-1.6797-0.95313c-4.2188-2.4297-9.6094-0.97266-12.039 3.2461-2.4258 4.2227-0.97266 9.6133 3.25 12.043l3.0234 1.7344c-3.7539 8.625-7.3359 17.473-10.641 26.32l-8.7344-2.4062v-0.003906c-4.2812-0.41406-8.2383 2.3047-9.3828 6.4492-1.1484 4.1406 0.85156 8.5078 4.7344 10.352l7.6719 2.0703c-3.0234 9.5742-5.6016 19.77-7.8398 30.129l-6.5508-1.2305h-0.003906c-4.7773-0.91016-9.3906 2.2227-10.301 7-0.91406 4.7773 2.2188 9.3906 7 10.305l6.7188 1.2891c-1.7852 11.426-2.9453 22.941-3.4727 34.496-3.0508 1.4414-5 4.5195-5 7.8945s1.9492 6.4492 5 7.8945v3.7539c0.71484 10.289 2.4023 20.492 5.0391 30.465-3.6055 1.5664-5.7344 5.3398-5.207 9.2383 0.10938 0.64844 0.27734 1.2852 0.50391 1.9062-3.7617-0.92578-7.6836 0.73828-9.6328 4.0859-10.727-12.082-18.848-26.246-23.855-41.609zm39.535 51.129c1.3359-2.2773 1.5625-5.0391 0.61719-7.5039 0.65625 0.17969 1.3359 0.27344 2.0156 0.28125h0.67188c1.6055 5.9141 3.6094 11.715 5.9922 17.359-3.8789-1.9453-7.6211-4.1523-11.199-6.6094zm61.152 37.801 1.6797-1.793c1.1445-1.2148 1.9219-2.7305 2.2422-4.3672 1.9062 2.9766 3.9609 5.8555 6.1602 8.625-3.3047-1.0078-6.7227-1.793-10.082-2.7461zm111.11 0c-1.9961-4.4375-7.2109-6.418-11.648-4.4258-4.4375 1.9961-6.418 7.2109-4.4258 11.648l4.9297 11.199v0.003906c-6.6836 2.0586-13.68 2.9297-20.664 2.5742v-10.359c0.19531-2.4609-0.64453-4.8945-2.3203-6.707-1.6758-1.8125-4.0312-2.8438-6.5-2.8438s-4.8242 1.0312-6.5 2.8438c-1.6758 1.8125-2.5156 4.2461-2.3203 6.707v6.832c-6.8945-2.2656-13.438-5.4883-19.43-9.5781l3.7539-4.8711h-0.003906c2.9531-3.8672 2.2148-9.3945-1.6523-12.348-3.8672-2.9531-9.3945-2.2148-12.348 1.6523l-3.2461 4.2578v-0.003906c-5.2852-5.457-9.7891-11.617-13.387-18.309l5.6016-0.61719c4.8398-0.49609 8.3633-4.8203 7.8672-9.6602-0.49609-4.8398-4.8203-8.3633-9.6602-7.8672l-10.078 1.0625c-2.1953-9.6328-3.3984-19.465-3.5859-29.344l11.871-0.44922c4.8008-0.26953 8.5039-4.3242 8.3438-9.125-0.26953-4.9297-4.4766-8.7109-9.4062-8.457l-11.199 0.50391v-8.3438c0-5.6016 0-11.199 0.39062-17.078h11.199v-0.003906c4.8555 0 8.793-3.9336 8.793-8.7891 0-4.8555-3.9375-8.793-8.793-8.793h-10.473c0.67188-9.1836 1.625-18.516 2.8555-28l12.602 1.5664h1.0664c4.5586-0.15625 8.25-3.7539 8.5234-8.3086 0.27734-4.5508-2.9531-8.5664-7.4609-9.2734l-12.207-1.457c1.1758-7.3906 2.5742-14.84 4.0312-22.398l5.2656 1.1211v-0.003906c0.61328 0.082031 1.2344 0.082031 1.8477 0 4.5508 0.074219 8.4062-3.3359 8.8867-7.8633 0.47656-4.5234-2.5742-8.668-7.0391-9.5508l-5.207-1.1211c1.6797-7.4492 3.5273-14.895 5.6016-22.398l5.6016 1.2891-0.003906-0.003907c0.6875 0.085938 1.3828 0.085938 2.0703 0 4.4805 0.023438 8.2617-3.3242 8.7773-7.7773 0.51953-4.4492-2.3945-8.5781-6.7617-9.582l-4.7617-1.1758c1.5664-5.6016 3.1914-10.695 4.9297-16.07 0.55859-1.793 1.1758-3.5273 1.793-5.3203l7.2227 1.2891c0.52344 0.054688 1.0469 0.054688 1.5703 0 3.7852-0.78516 6.6211-3.9375 7.0078-7.7852 0.38281-3.8477-1.7734-7.4961-5.3281-9.0156l-4.0312-0.72656c2.3516-6.0469 4.6484-12.207 6.7773-18.535l5.2656 2.2383h-0.003906c1.0859 0.4375 2.2461 0.66406 3.4141 0.67188 3.6055-0.015625 6.8281-2.2383 8.1211-5.6016 0.91016-2.1523 0.92578-4.5781 0.042969-6.7461-0.88281-2.1641-2.5898-3.8867-4.7461-4.7891l-7.2812-3.0234c0-0.95312 0.39062-1.9023 0.55859-2.9102l0.003906-0.003906c0.93359-5.7383 2.4531-11.367 4.5352-16.801 0.61719 1.2305 1.1758 2.6328 1.625 3.6953l-0.003906 0.003907c0.98828 2.6758 2.207 5.2617 3.6406 7.7266 6.918 11.23 13.09 22.906 18.48 34.945-4.0391 1.4219-6.4805 5.5391-5.793 9.7656 0.69141 4.2305 4.3086 7.3555 8.5938 7.4258 0.93359-0.011719 1.8555-0.16406 2.7422-0.44922l1.5117-0.50391c1.2305 2.9688 2.4648 5.9922 3.6406 9.0703v0.003906c-3.0938 2.2383-4.4023 6.2109-3.2422 9.8477 1.1562 3.6406 4.5195 6.1289 8.3398 6.168h0.72656c2.8555 8.457 5.2656 16.801 7.3906 24.863h0.003906c-4.3047 1.1094-7.1016 5.2617-6.5195 9.668 0.58594 4.4062 4.3672 7.6836 8.8125 7.6367 0.61719 0.054688 1.2344 0.054688 1.8516 0 0.89453 3.7539 1.7344 7.4492 2.4648 11.199 0.72656 3.7539 1.793 7.3906 2.8008 11.199h-1.0117c-4.4766 0.88281-7.5391 5.043-7.043 9.582s4.3828 7.9414 8.9453 7.8359c0.63281 0.078126 1.2734 0.078126 1.9062 0l2.2969-0.50391c1.3984 4.7617 2.6328 9.4062 3.5859 14.055 0.67188 3.3047 1.2891 6.7188 1.9609 10.191l-6.5508 1.0078h-0.003906c-4.7227 0.49609-8.1953 4.6523-7.8477 9.3867 0.34766 4.7383 4.3906 8.3398 9.1328 8.1406h1.3438l6.9453-1.0625c1.0625 7 2.0703 14.223 2.9102 21.727h-3.1367 0.003907c-2.332 0.11328-4.5234 1.1445-6.0938 2.8711-1.5703 1.7305-2.3906 4.0117-2.2773 6.3398 0.23047 4.8594 4.3555 8.6055 9.2109 8.375h3.8633c0.39063 6.3828 0.67188 12.824 0.67188 19.375l-3.1914-0.50391c-2.5078-1.1289-5.4023-1.0156-7.8164 0.30078-2.4141 1.3164-4.0742 3.6914-4.4844 6.4102-0.40625 2.7188 0.48047 5.4727 2.3984 7.4453 1.9219 1.9688 4.6523 2.9258 7.3828 2.5859l5.6016 0.83984v4.3672c-0.44922 5.9922-1.0078 12.434-1.8477 18.871l-5.6016-0.89453v0.003907c-4.7969-0.82031-9.3477 2.3984-10.164 7.1953-0.82031 4.793 2.4023 9.3438 7.1953 10.164l5.0391 0.83984c-0.55859 2.0703-1.1758 4.0898-1.8477 6.1055v-0.003906c-1.9688 4.5234-4.5938 8.7305-7.7852 12.488-1.3984 1.8477-2.8008 3.6953-4.0898 5.6016l-0.55859 0.78516-1.2305 1.793zm32.199-4.9297c0.46875-0.96484 0.87891-1.9531 1.2305-2.9648 1.0625-2.9688 1.9023-5.9375 2.6875-8.9609l9.1836 1.5664h0.003906c0.5 0.054688 1.0078 0.054688 1.5117 0-4.5273 3.918-9.4219 7.3906-14.617 10.359zm48.105-23.969-0.61719 0.33594v0.003906c4.1836-6.4336 7.8008-13.215 10.809-20.273 0.39844 0.96875 0.96484 1.8633 1.6797 2.6328l4.4805 4.9297v-0.003906c-5.0898 4.6172-10.559 8.793-16.352 12.488zm24.809-29.23c-2.6328-2.8516-6.8281-3.6289-10.305-1.9023 1.1211-3.3047 2.1289-6.6641 3.0781-10.078l3.8633 1.1211v-0.003906c2.3438 1.0859 5.0391 1.0938 7.3906 0.027343 2.3477-1.0703 4.1133-3.1133 4.832-5.5898 0.71875-2.4766 0.32031-5.1484-1.0938-7.3086-1.4141-2.1562-3.6953-3.5938-6.2539-3.9297l-4.9844-1.3984c2.0195-11.785 3.0273-23.719 3.0234-35.672h8.5664c4.6016-0.36719 8.1445-4.207 8.1445-8.8203s-3.543-8.4531-8.1445-8.8203h-9.1289c-0.74609-10.391-2.207-20.719-4.3672-30.914l6.0469-1.1211 0.003906 0.003907c4.4922-1.1641 7.3242-5.6016 6.4844-10.168s-5.0664-7.7031-9.6797-7.1914l-7 1.2852c-2.4727-8.3242-5.5781-16.449-9.293-24.305-0.83984-1.7344-1.625-3.5273-2.4648-5.6016l4.0898-1.8477-0.003907 0.003906c4.4258-2.043 6.3555-7.2812 4.3125-11.703-2.0391-4.4258-7.2812-6.3555-11.703-4.3125l-3.9219 1.793v-0.003906c-2.2148-4.6445-4.8984-9.0547-8.0078-13.156-2.9102-3.8633-6.1055-7.9531-9.3516-12.098l6.6641-4.0312c3.0859-1.8555 4.7305-5.4062 4.1445-8.9609 3.5859 3.9219 7.1133 8.0078 10.527 12.266l-1.457 1.0078h0.003906c-3.1719 2.1992-4.5391 6.2109-3.3672 9.8867 1.168 3.6797 4.6016 6.1641 8.4609 6.1289 1.8281 0.011719 3.6133-0.55859 5.0977-1.625l1.6797-1.1758c5.8477 8.6406 11.121 17.66 15.793 26.992-2.8672 3.0938-3.1484 7.7852-0.67187 11.199 1.6406 2.3281 4.3164 3.707 7.168 3.6953h0.39062c5.0391 11.547 9.0859 23.496 12.098 35.73l-2.9688 0.50391c-2.3477 0.19141-4.5234 1.3086-6.043 3.1055-1.5234 1.7969-2.2695 4.1211-2.0781 6.4688 0.40234 4.8867 4.6875 8.5234 9.5742 8.1211h1.457l3.3047-0.61719c0.72656 4.7617 1.2891 9.4648 1.5664 14.113 2.0859 24.34-2.8516 48.77-14.223 70.391-0.40234 0.57812-0.73828 1.1992-1.0078 1.8477-2.125 3.7031-4.4414 7.293-6.9453 10.754zm62.215-67.926c-0.80859 2.0898-1.7422 4.1289-2.8008 6.1016l-1.3438-0.50391c-4.3047-1.8008-9.2656 0.070312-11.305 4.2695-2.0391 4.1953-0.44531 9.2539 3.6328 11.523-0.39062 0.72656-0.83984 1.3984-1.1758 2.1289l-0.50391 0.95312v-0.003906c-1.3516 3.2656-3.2461 6.2734-5.6016 8.9062l-0.55859 0.55859-1.6797-1.6211-0.83984-0.78516c3.0625-14.516 4.0781-29.387 3.0234-44.184-0.33594-5.2656-0.89453-10.586-1.7344-15.961l3.6953-0.61719c4.5703-1.0508 7.5273-5.4844 6.7383-10.109-0.78906-4.6211-5.0469-7.8281-9.707-7.3047l-4.0898 0.72656c-3.4844-14.359-8.2422-28.375-14.223-41.887l7-4.9297c3.9727-2.8125 4.9141-8.3164 2.1016-12.293-2.8164-3.9727-8.3203-4.9141-12.293-2.0977l-4.5352 3.2461c-4.8125-9.1328-10.121-17.992-15.906-26.543l4.3125-3.0781c3.1914-3.0195 3.6641-7.9336 1.1094-11.504-2.5547-3.5742-7.3555-4.7109-11.246-2.6641l-4.5938 3.2461h0.003907c-9.4023-12.059-20.023-23.109-31.695-32.984-8.8477-7.5039-17.922-14.449-26.938-21 2.1914-0.66406 4.0273-2.1758 5.0938-4.1992l2.0703-3.7539c6.8867 3.6406 13.719 7.6719 20.609 12.039l-1.457 2.1836 0.003907 0.003907c-1.3242 1.9258-1.8164 4.3008-1.375 6.5938 0.44141 2.293 1.7852 4.3164 3.7266 5.6133 1.4453 1 3.168 1.5312 4.9297 1.5117 2.9336 0.007812 5.6797-1.4375 7.3359-3.8633l1.6797-2.3516c5.6016 4.0898 11.535 8.3438 17.359 12.938l4.8711 3.7539-2.9102 3.1914v-0.003907c-1.5703 1.7305-2.3867 4.0117-2.2734 6.3438 0.11719 2.332 1.1562 4.5234 2.8867 6.0898 1.7227 1.5742 4 2.4023 6.332 2.2969 2.332-0.10547 4.5273-1.1328 6.1016-2.8594l4.0312-4.4805c4.7461 3.5859 9.2383 7.4961 13.441 11.707 2.8203 3.0508 5.3867 6.3281 7.6719 9.7969l-3.6406 2.4062v0.003907c-4.082 2.6445-5.25 8.0977-2.6055 12.18 2.6445 4.082 8.0977 5.25 12.18 2.6055l4.1445-2.7422c3.1914 4.7031 5.9922 9.2969 8.5117 13.887l-9.1836 3.4727v-0.003906c-3.7031 1.6641-5.7852 5.6445-5.0391 9.6367 0.74219 3.9883 4.1211 6.9492 8.1758 7.1641 1.0508 0.007812 2.0977-0.18359 3.0781-0.55859l10.195-3.8633c2.6406 6.957 4.7383 14.109 6.2695 21.391 0.33594 1.3984 0.61719 2.8008 0.95312 4.2578l-7 2.3516c-3.6875 1.6406-5.7773 5.582-5.0781 9.5586 0.70312 3.9727 4.0195 6.957 8.0469 7.2383 1.0195 0.17969 2.0586 0.17969 3.0781 0l4.1992-1.5117c0.78516 6.2422 0.89844 12.551 0.33594 18.816l-6.6641-0.50391c-2.3164-0.26562-4.6484 0.40625-6.4688 1.8711-1.8203 1.4609-2.9766 3.5898-3.2188 5.9141-0.52344 4.8359 2.9531 9.1875 7.7852 9.7422l5.6016 0.61719c-0.54297 4.043-1.4219 8.0312-2.6328 11.93z"/>

 </g>
</svg>
