<svg width="230" height="231" xmlns="http://www.w3.org/2000/svg" xmlns:xlink="http://www.w3.org/1999/xlink" overflow="hidden"><defs><clipPath id="clip0"><rect x="589" y="137" width="230" height="231"/></clipPath><clipPath id="clip1"><rect x="590" y="137" width="228" height="230"/></clipPath><clipPath id="clip2"><rect x="590" y="137" width="228" height="230"/></clipPath><clipPath id="clip3"><rect x="590" y="137" width="228" height="286"/></clipPath></defs><g clip-path="url(#clip0)" transform="translate(-589 -137)"><g clip-path="url(#clip1)"><g clip-path="url(#clip2)"><g clip-path="url(#clip3)"><path d="M221.108 113.904 151.091 183.923C149.13 185.884 146.524 186.962 143.74 186.962L62.8368 186.962 37.3874 212.414 3.84864 178.873 50.6228 132.128C54.5832 128.316 59.7793 126.216 65.2513 126.216L162.99 126.2C166.073 126.2 168.987 127.605 170.991 130.056L171.463 130.639C172.694 132.386 173.371 134.408 173.371 136.577 173.371 139.351 172.29 141.955 170.33 143.918 168.373 145.877 165.77 146.955 162.995 146.955 162.995 146.955 162.993 146.955 162.99 146.955L116.814 146.955C115.183 146.955 113.861 148.275 113.861 149.908 113.861 151.54 115.183 152.86 116.814 152.86L162.99 152.86C162.993 152.86 162.995 152.86 162.995 152.86 167.343 152.86 171.431 151.171 174.509 148.091 177.585 145.017 179.276 140.925 179.276 136.577 179.276 133.74 178.524 130.954 177.133 128.51L206.427 99.2165C210.348 95.2926 217.188 95.2926 221.108 99.2165 223.066 101.18 224.151 103.786 224.151 106.56 224.151 109.335 223.068 111.943 221.108 113.904Z" transform="matrix(1 0 0 1.0008 590 137)"/><path d="M153.143 77.0754 132.997 28.4384 112.853 77.0754C110.621 82.4539 110.621 88.3796 112.851 93.7627 115.083 99.1458 119.274 103.336 124.65 105.562 127.317 106.67 130.124 107.228 132.99 107.228L132.99 107.228C141.843 107.228 149.753 101.941 153.136 93.765 155.368 88.3888 155.373 82.4608 153.143 77.0754Z" transform="matrix(1 0 0 1.0008 590 137)"/><path d="M161.809 47.9188 148.414 15.5884 141.239 32.9141 155.079 66.3161C158.047 64.7794 160.466 62.2486 161.807 59.0132 163.287 55.4382 163.289 51.4938 161.809 47.9188Z" transform="matrix(1 0 0 1.0008 590 137)"/><text font-family="Arial,Arial_MSFontService,sans-serif" font-weight="700" font-size="5" transform="matrix(2.28 0 0 2.28183 590 399)">Created by Diego Naive<tspan font-size="5" x="0" y="5.25893">from the Noun Project</tspan></text></g></g></g></g></svg>