<svg xmlns="http://www.w3.org/2000/svg" viewBox="0 0 24 30" fill="none" x="0px" y="0px"><path fill-rule="evenodd" clip-rule="evenodd" d="M12 20C16.4183 20 20 16.4183 20 12C20 7.58172 16.4183 4 12 4C7.58172 4 4 7.58172 4 12C4 16.4183 7.58172 20 12 20ZM12 22C17.5228 22 22 17.5228 22 12C22 6.47715 17.5228 2 12 2C6.47715 2 2 6.47715 2 12C2 17.5228 6.47715 22 12 22Z" fill="black"/><path fill-rule="evenodd" clip-rule="evenodd" d="M12 16C14.2091 16 16 14.2091 16 12C16 9.79086 14.2091 8 12 8C9.79086 8 8 9.79086 8 12C8 14.2091 9.79086 16 12 16ZM12 18C15.3137 18 18 15.3137 18 12C18 8.68629 15.3137 6 12 6C8.68629 6 6 8.68629 6 12C6 15.3137 8.68629 18 12 18Z" fill="black"/><path fill-rule="evenodd" clip-rule="evenodd" d="M0.5 12C0.5 11.4477 0.947715 11 1.5 11H22.5C23.0523 11 23.5 11.4477 23.5 12C23.5 12.5523 23.0523 13 22.5 13H1.5C0.947715 13 0.5 12.5523 0.5 12Z" fill="black"/><path fill-rule="evenodd" clip-rule="evenodd" d="M12 23.5C11.4477 23.5 11 23.0523 11 22.5V1.50001C11 0.947723 11.4477 0.500008 12 0.500008C12.5523 0.500008 13 0.947723 13 1.50001V22.5C13 23.0523 12.5523 23.5 12 23.5Z" fill="black"/><text x="0" y="39" fill="#000000" font-size="5px" font-weight="bold" font-family="'Helvetica Neue', Helvetica, Arial-Unicode, Arial, Sans-serif">Created by Raden Septiana Faza</text><text x="0" y="44" fill="#000000" font-size="5px" font-weight="bold" font-family="'Helvetica Neue', Helvetica, Arial-Unicode, Arial, Sans-serif">from the Noun Project</text></svg>