<svg xmlns="http://www.w3.org/2000/svg" data-name="Layer 1" viewBox="0 0 24 30" x="0px" y="0px"><title>tear, drop, water, weather</title><path d="M12.67444.642c-.21161-.856-1.13727-.856-1.34888,0C9.57111,7.73865,5,10.66211,5,16.99994V17a7,7,0,0,0,14,0v-.00006C19,10.66211,14.42889,7.73865,12.67444.642ZM10.86523,20.96484a1.00074,1.00074,0,0,1-1.36718.36377A5.02036,5.02036,0,0,1,7,17a1,1,0,0,1,2,0,3.013,3.013,0,0,0,1.502,2.59814A.99977.99977,0,0,1,10.86523,20.96484Z"/><text x="0" y="39" fill="#000000" font-size="5px" font-weight="bold" font-family="'Helvetica Neue', Helvetica, Arial-Unicode, Arial, Sans-serif">Created by Martins Ratkus</text><text x="0" y="44" fill="#000000" font-size="5px" font-weight="bold" font-family="'Helvetica Neue', Helvetica, Arial-Unicode, Arial, Sans-serif">from the Noun Project</text></svg>