<svg xmlns="http://www.w3.org/2000/svg" xmlns:xlink="http://www.w3.org/1999/xlink" version="1.0" x="0px" y="0px" viewBox="0 0 100 125" style="enable-background:new 0 0 100 100;" xml:space="preserve"><g><g><path d="M35.03,85.41h9.9c-6.13-10.34-2.68-16.03-2.15-16.79c0.32-0.6,4.05-7.98-0.07-17.1c-2.46-5.44-3.04-11.04-1.93-15.99    c-0.84-5.42-3.33-9.35-5.42-11.79c0.79,5.29-2.7,8.71-2.75,8.75c-0.62,0.55-14.27,12.78-3.2,29.17    C38.25,74.74,36.67,82.2,35.03,85.41z M33.5,42.83c0.13-0.59,0.72-0.96,1.3-0.83c0.59,0.13,0.96,0.71,0.83,1.3    C33.31,53.73,40.74,59.93,40.82,60c0.47,0.38,0.54,1.07,0.15,1.54c-0.22,0.26-0.53,0.4-0.85,0.4c-0.24,0-0.49-0.08-0.69-0.25    C39.08,61.4,30.89,54.55,33.5,42.83z"/><path d="M44.66,69.74c-0.02,0.04-0.05,0.08-0.08,0.12c-0.15,0.21-3.68,5.28,2.92,15.55h13.74c0.94-0.4,5.7-2.8,5.56-9.97    c-0.17-8.18-6.71-15.38-6.77-15.46c-0.06-0.06-0.11-0.13-0.15-0.21c-0.22-0.4-5.33-9.92,6-21.04C74.1,30.67,64.32,11.86,60.31,5    c-0.91,5.3-3.52,16-10.13,20.32c-7.68,5.03-9.94,15.43-5.48,25.29C49.46,61.14,44.85,69.39,44.66,69.74z M57.77,32.75    c0.4-0.45,1.09-0.49,1.54-0.09c0.45,0.4,0.49,1.09,0.09,1.54c-5.08,5.72-8.43,16.57-5.25,24.83c3.53,9.16,0.15,18.84,0.01,19.24    C54.01,78.72,53.59,79,53.14,79c-0.12,0-0.25-0.02-0.37-0.06c-0.57-0.2-0.87-0.83-0.66-1.4c0.03-0.09,3.24-9.34,0.01-17.72    C48.5,50.44,52.33,38.87,57.77,32.75z"/><path d="M72.86,87.59H61.46c0,0,0,0,0,0c0,0,0,0,0,0H27.38c-1.12,0-2.04,0.92-2.04,2.04v5.23c0,1.12,0.91,2.04,2.04,2.04h45.49    c1.12,0,2.04-0.92,2.04-2.04v-5.23C74.9,88.51,73.99,87.59,72.86,87.59z"/></g></g></svg>