<svg xmlns="http://www.w3.org/2000/svg" xmlns:xlink="http://www.w3.org/1999/xlink" version="1.1" x="0px" y="0px" viewBox="0 0 100 125" enable-background="new 0 0 100 100" xml:space="preserve"><path d="M95.294,76.811c-2.514-1.234-4.099-1.85-5.372-2.345c-2.341-0.908-3.888-1.509-9.119-5.063l-0.266-0.187h-0.05  c-3.356-2.582-2.599-6.395-1.865-10.087c1.063-5.356,6.021-6.155,11.323-7.01l1.459-0.235l-0.761-1.267  c-0.292-0.486-0.531-1.021-0.763-1.539c-0.496-1.11-1.009-2.259-2.073-3.011c-1.721-1.217-3.75-1.834-6.031-1.834  c-3.988,0-7.832,1.863-10.354,3.427c-1.61,0.999-3.378,1.852-5.088,2.677c-1.495,0.722-3.042,1.468-4.515,2.323  c-1.267,0.737-2.353,1.096-3.32,1.096c-1.527,0-2.933-0.877-4.699-2.933c-2.796-3.255-3.455-6.643-2.202-11.326  c1.111-4.142,3.992-6.571,8.376-7.032l15.4-2.328l-0.938-1.324c-3.335-4.709-9.581-7.52-16.71-7.52  c-4.673,0-9.134,1.261-12.561,3.551c-9.153,6.124-13.658,15.627-17.488,24.835l-0.692,1.671C22.556,62.058,19.63,69.133,8.218,73.16  c-0.981,0.346-5.455,3.045-6.25,3.841l-1.704,1.707h98.895L95.294,76.811z"/></svg>